<?xml version="1.0" encoding="UTF-8"?>
<!DOCTYPE svg PUBLIC "-//W3C//DTD SVG 1.1//EN" "http://www.w3.org/Graphics/SVG/1.1/DTD/svg11.dtd">
<!-- Creator: CorelDRAW X7 -->
<svg xmlns="http://www.w3.org/2000/svg" xml:space="preserve" width="297mm" height="210mm" version="1.1" style="shape-rendering:geometricPrecision; text-rendering:geometricPrecision; image-rendering:optimizeQuality; fill-rule:evenodd; clip-rule:evenodd"
viewBox="0 0 29700 21000"
 xmlns:xlink="http://www.w3.org/1999/xlink">
 <defs>
  <style type="text/css">
   <![CDATA[
    .fil39 {fill:#021F44;fill-rule:nonzero}
    .fil35 {fill:#03254E;fill-rule:nonzero}
    .fil66 {fill:#0F1519;fill-rule:nonzero}
    .fil36 {fill:#11477C;fill-rule:nonzero}
    .fil70 {fill:#414042;fill-rule:nonzero}
    .fil46 {fill:#559DCE;fill-rule:nonzero}
    .fil48 {fill:#A5B7C6;fill-rule:nonzero}
    .fil51 {fill:#B0BFC9;fill-rule:nonzero}
    .fil67 {fill:#BACDD6;fill-rule:nonzero}
    .fil47 {fill:#C3D3DD;fill-rule:nonzero}
    .fil43 {fill:#CED7E0;fill-rule:nonzero}
    .fil68 {fill:#D4E2E8;fill-rule:nonzero}
    .fil0 {fill:#DCE8EF;fill-rule:nonzero}
    .fil71 {fill:#E0BD96;fill-rule:nonzero}
    .fil50 {fill:#E1E3E5;fill-rule:nonzero}
    .fil77 {fill:#E2AE2B;fill-rule:nonzero}
    .fil69 {fill:#F2B49C;fill-rule:nonzero}
    .fil42 {fill:#F8FAFB;fill-rule:nonzero}
    .fil49 {fill:#F9FBFC;fill-rule:nonzero}
    .fil56 {fill:#FFC8AF;fill-rule:nonzero}
    .fil37 {fill:url(#id0)}
    .fil16 {fill:url(#id1)}
    .fil8 {fill:url(#id2)}
    .fil61 {fill:url(#id3)}
    .fil33 {fill:url(#id4)}
    .fil23 {fill:url(#id5)}
    .fil13 {fill:url(#id6)}
    .fil7 {fill:url(#id7)}
    .fil79 {fill:url(#id8)}
    .fil63 {fill:url(#id9)}
    .fil1 {fill:url(#id10)}
    .fil65 {fill:url(#id11)}
    .fil78 {fill:url(#id12)}
    .fil17 {fill:url(#id13)}
    .fil31 {fill:url(#id14)}
    .fil75 {fill:url(#id15)}
    .fil53 {fill:url(#id16)}
    .fil32 {fill:url(#id17)}
    .fil34 {fill:url(#id18)}
    .fil76 {fill:url(#id19)}
    .fil45 {fill:url(#id20)}
    .fil15 {fill:url(#id21)}
    .fil18 {fill:url(#id22)}
    .fil21 {fill:url(#id23)}
    .fil29 {fill:url(#id24)}
    .fil88 {fill:url(#id25)}
    .fil80 {fill:url(#id26)}
    .fil73 {fill:url(#id27)}
    .fil59 {fill:url(#id28)}
    .fil2 {fill:url(#id29)}
    .fil72 {fill:url(#id30)}
    .fil24 {fill:url(#id31)}
    .fil14 {fill:url(#id32)}
    .fil11 {fill:url(#id33)}
    .fil20 {fill:url(#id34)}
    .fil40 {fill:url(#id35)}
    .fil30 {fill:url(#id36)}
    .fil64 {fill:url(#id37)}
    .fil52 {fill:url(#id38)}
    .fil86 {fill:url(#id39)}
    .fil85 {fill:url(#id40)}
    .fil9 {fill:url(#id41)}
    .fil3 {fill:url(#id42)}
    .fil44 {fill:url(#id43)}
    .fil25 {fill:url(#id44)}
    .fil41 {fill:url(#id45)}
    .fil12 {fill:url(#id46)}
    .fil22 {fill:url(#id47)}
    .fil5 {fill:url(#id48)}
    .fil84 {fill:url(#id49)}
    .fil6 {fill:url(#id50)}
    .fil10 {fill:url(#id51)}
    .fil57 {fill:url(#id52)}
    .fil58 {fill:url(#id53)}
    .fil26 {fill:url(#id54)}
    .fil4 {fill:url(#id55)}
    .fil54 {fill:url(#id56)}
    .fil28 {fill:url(#id57)}
    .fil19 {fill:url(#id58)}
    .fil60 {fill:url(#id59)}
    .fil62 {fill:url(#id60)}
    .fil82 {fill:url(#id61)}
    .fil83 {fill:url(#id62)}
    .fil38 {fill:url(#id63)}
    .fil81 {fill:url(#id64)}
    .fil27 {fill:url(#id65)}
    .fil87 {fill:url(#id66)}
    .fil74 {fill:url(#id67)}
    .fil55 {fill:url(#id68)}
   ]]>
  </style>
  <linearGradient id="id0" gradientUnits="userSpaceOnUse" x1="13736.8" y1="3105.02" x2="18317" y2="17629.6">
   <stop offset="0" style="stop-opacity:1; stop-color:#29ABE2"/>
   <stop offset="1" style="stop-opacity:1; stop-color:#00369F"/>
  </linearGradient>
  <linearGradient id="id1" gradientUnits="userSpaceOnUse" x1="5178.65" y1="18194.1" x2="6127.93" y2="18769.2">
   <stop offset="0" style="stop-opacity:1; stop-color:aqua"/>
   <stop offset="0.290196" style="stop-opacity:1; stop-color:#2AD4F1"/>
   <stop offset="1" style="stop-opacity:1; stop-color:#54A8E2"/>
  </linearGradient>
  <linearGradient id="id2" gradientUnits="userSpaceOnUse" xlink:href="#id1" x1="25901" y1="18104.8" x2="26754.4" y2="18621.8">
  </linearGradient>
  <linearGradient id="id3" gradientUnits="userSpaceOnUse" xlink:href="#id0" x1="18853.8" y1="17354.8" x2="20572.6" y2="17812">
  </linearGradient>
  <linearGradient id="id4" gradientUnits="userSpaceOnUse" x1="17041.5" y1="17260.8" x2="17377.4" y2="20388.9">
   <stop offset="0" style="stop-opacity:1; stop-color:#FBF04C"/>
   <stop offset="0.25098" style="stop-opacity:1; stop-color:#FBD14C"/>
   <stop offset="1" style="stop-opacity:1; stop-color:#FF9342"/>
  </linearGradient>
  <linearGradient id="id5" gradientUnits="userSpaceOnUse" xlink:href="#id4" x1="7339.89" y1="16609" x2="7889.72" y2="20400.6">
  </linearGradient>
  <linearGradient id="id6" gradientUnits="userSpaceOnUse" xlink:href="#id1" x1="3137.71" y1="16841.9" x2="5446.26" y2="17965.1">
  </linearGradient>
  <linearGradient id="id7" gradientUnits="userSpaceOnUse" xlink:href="#id1" x1="24493.8" y1="18422.4" x2="25056.9" y2="18633">
  </linearGradient>
  <linearGradient id="id8" gradientUnits="userSpaceOnUse" xlink:href="#id1" x1="13339.6" y1="18640.9" x2="13613.9" y2="18802.5">
  </linearGradient>
  <linearGradient id="id9" gradientUnits="userSpaceOnUse" x1="9260.42" y1="16223.4" x2="9339.99" y2="16575.1">
   <stop offset="0" style="stop-opacity:1; stop-color:#1674C2"/>
   <stop offset="1" style="stop-opacity:1; stop-color:#00369F"/>
  </linearGradient>
  <linearGradient id="id10" gradientUnits="userSpaceOnUse" xlink:href="#id0" x1="23646.7" y1="17731.1" x2="24482.8" y2="19170.8">
  </linearGradient>
  <linearGradient id="id11" gradientUnits="userSpaceOnUse" x1="8192.99" y1="11175.7" x2="9032.67" y2="12881.8">
   <stop offset="0" style="stop-opacity:1; stop-color:#FBF04C"/>
   <stop offset="1" style="stop-opacity:1; stop-color:#FBB34C"/>
  </linearGradient>
  <linearGradient id="id12" gradientUnits="userSpaceOnUse" xlink:href="#id11" x1="6455.68" y1="11492.4" x2="8187.46" y2="12965.3">
  </linearGradient>
  <linearGradient id="id13" gradientUnits="userSpaceOnUse" xlink:href="#id1" x1="2828.16" y1="12893.3" x2="6227.58" y2="17364.4">
  </linearGradient>
  <linearGradient id="id14" gradientUnits="userSpaceOnUse" xlink:href="#id1" x1="21186.3" y1="18633.2" x2="21531.1" y2="18762.2">
  </linearGradient>
  <linearGradient id="id15" gradientUnits="userSpaceOnUse" xlink:href="#id11" x1="8038.66" y1="11156" x2="8075.26" y2="11206.2">
  </linearGradient>
  <linearGradient id="id16" gradientUnits="userSpaceOnUse" xlink:href="#id4" x1="23422.2" y1="13040.5" x2="25254.2" y2="16287.2">
  </linearGradient>
  <linearGradient id="id17" gradientUnits="userSpaceOnUse" xlink:href="#id1" x1="22047.7" y1="18438.8" x2="22570.1" y2="18755.3">
  </linearGradient>
  <linearGradient id="id18" gradientUnits="userSpaceOnUse" x1="13257.3" y1="2196.71" x2="18796.4" y2="18625.7">
   <stop offset="0" style="stop-opacity:1; stop-color:#E1E9EE"/>
   <stop offset="0.988235" style="stop-opacity:1; stop-color:#B1C6D3"/>
   <stop offset="1" style="stop-opacity:1; stop-color:#B1C6D3"/>
  </linearGradient>
  <linearGradient id="id19" gradientUnits="userSpaceOnUse" xlink:href="#id11" x1="7633.1" y1="10946.5" x2="7773.31" y2="11161.5">
  </linearGradient>
  <linearGradient id="id20" gradientUnits="userSpaceOnUse" xlink:href="#id0" x1="6860.83" y1="13479.4" x2="7318.21" y2="16584.8">
  </linearGradient>
  <linearGradient id="id21" gradientUnits="userSpaceOnUse" xlink:href="#id1" x1="3613.25" y1="18547.4" x2="4239.61" y2="18781.5">
  </linearGradient>
  <linearGradient id="id22" gradientUnits="userSpaceOnUse" xlink:href="#id0" x1="2724.61" y1="13118.1" x2="6933.42" y2="18156.1">
  </linearGradient>
  <linearGradient id="id23" gradientUnits="userSpaceOnUse" xlink:href="#id1" x1="26830.2" y1="16918.5" x2="27797.6" y2="18371">
  </linearGradient>
  <linearGradient id="id24" gradientUnits="userSpaceOnUse" xlink:href="#id1" x1="20924.6" y1="17694.8" x2="22195" y2="18312.9">
  </linearGradient>
  <linearGradient id="id25" gradientUnits="userSpaceOnUse" xlink:href="#id18" x1="13464.8" y1="18781.1" x2="14050.2" y2="20175.9">
  </linearGradient>
  <linearGradient id="id26" gradientUnits="userSpaceOnUse" xlink:href="#id1" x1="13703.8" y1="18717.5" x2="13837.4" y2="18750.2">
  </linearGradient>
  <linearGradient id="id27" gradientUnits="userSpaceOnUse" x1="7905.94" y1="10409.3" x2="7905.94" y2="10664.3">
   <stop offset="0" style="stop-opacity:1; stop-color:#11477C"/>
   <stop offset="1" style="stop-opacity:1; stop-color:#03254E"/>
  </linearGradient>
  <linearGradient id="id28" gradientUnits="userSpaceOnUse" xlink:href="#id4" x1="18669.8" y1="14403" x2="19869.8" y2="15851.8">
  </linearGradient>
  <linearGradient id="id29" gradientUnits="userSpaceOnUse" xlink:href="#id1" x1="23993.2" y1="18445.2" x2="24547.1" y2="18661.4">
  </linearGradient>
  <linearGradient id="id30" gradientUnits="userSpaceOnUse" xlink:href="#id27" x1="8222.79" y1="9919.25" x2="8222.79" y2="10639.3">
  </linearGradient>
  <linearGradient id="id31" gradientUnits="userSpaceOnUse" xlink:href="#id4" x1="22668.6" y1="17377.1" x2="23087.4" y2="20264.8">
  </linearGradient>
  <linearGradient id="id32" gradientUnits="userSpaceOnUse" xlink:href="#id0" x1="3456.17" y1="17864.2" x2="4151" y2="19099">
  </linearGradient>
  <linearGradient id="id33" gradientUnits="userSpaceOnUse" xlink:href="#id0" x1="5401.78" y1="17743.5" x2="6094.11" y2="18821.5">
  </linearGradient>
  <linearGradient id="id34" gradientUnits="userSpaceOnUse" xlink:href="#id0" x1="25352.3" y1="16315" x2="27622.4" y2="18041.9">
  </linearGradient>
  <linearGradient id="id35" gradientUnits="userSpaceOnUse" x1="13151.9" y1="3421.92" x2="18524.7" y2="17312.7">
   <stop offset="0" style="stop-opacity:1; stop-color:#1F8DC4"/>
   <stop offset="1" style="stop-opacity:1; stop-color:#002D8A"/>
  </linearGradient>
  <linearGradient id="id36" gradientUnits="userSpaceOnUse" xlink:href="#id0" x1="21099.9" y1="18257.4" x2="21482.3" y2="18936.8">
  </linearGradient>
  <linearGradient id="id37" gradientUnits="userSpaceOnUse" xlink:href="#id9" x1="8764.49" y1="16740" x2="8888.72" y2="17064.3">
  </linearGradient>
  <linearGradient id="id38" gradientUnits="userSpaceOnUse" xlink:href="#id4" x1="15361.6" y1="9523.93" x2="17249" y2="9756.72">
  </linearGradient>
  <linearGradient id="id39" gradientUnits="userSpaceOnUse" x1="13867.7" y1="17256.3" x2="14624.6" y2="18096.6">
   <stop offset="0" style="stop-opacity:1; stop-color:#00D3D4"/>
   <stop offset="1" style="stop-opacity:1; stop-color:#458BBC"/>
  </linearGradient>
  <linearGradient id="id40" gradientUnits="userSpaceOnUse" xlink:href="#id39" x1="12665.3" y1="17477.5" x2="13542.8" y2="18374.5">
  </linearGradient>
  <linearGradient id="id41" gradientUnits="userSpaceOnUse" xlink:href="#id0" x1="2221.82" y1="17180.4" x2="3754" y2="18849.8">
  </linearGradient>
  <linearGradient id="id42" gradientUnits="userSpaceOnUse" xlink:href="#id0" x1="26101.6" y1="17699.9" x2="26724" y2="18668.9">
  </linearGradient>
  <linearGradient id="id43" gradientUnits="userSpaceOnUse" xlink:href="#id4" x1="7980.95" y1="15490.9" x2="8438.3" y2="18596.2">
  </linearGradient>
  <linearGradient id="id44" gradientUnits="userSpaceOnUse" xlink:href="#id0" x1="20420.7" y1="17881.1" x2="21263.8" y2="18799.7">
  </linearGradient>
  <linearGradient id="id45" gradientUnits="userSpaceOnUse" x1="15803.6" y1="4489.91" x2="15872.6" y2="5166.09">
   <stop offset="0" style="stop-opacity:1; stop-color:#ACC1CE"/>
   <stop offset="0.988235" style="stop-opacity:1; stop-color:#87A4B7"/>
   <stop offset="1" style="stop-opacity:1; stop-color:#87A4B7"/>
  </linearGradient>
  <linearGradient id="id46" gradientUnits="userSpaceOnUse" xlink:href="#id0" x1="3020.48" y1="15737" x2="5057.11" y2="18340.8">
  </linearGradient>
  <linearGradient id="id47" gradientUnits="userSpaceOnUse" xlink:href="#id0" x1="26670.3" y1="17050.6" x2="27424.2" y2="18442.8">
  </linearGradient>
  <linearGradient id="id48" gradientUnits="userSpaceOnUse" xlink:href="#id1" x1="25316.9" y1="18443.4" x2="25683.1" y2="18518.3">
  </linearGradient>
  <linearGradient id="id49" gradientUnits="userSpaceOnUse" xlink:href="#id1" x1="13914.9" y1="17245.8" x2="14506.9" y2="18191.3">
  </linearGradient>
  <linearGradient id="id50" gradientUnits="userSpaceOnUse" xlink:href="#id0" x1="24352.6" y1="17808.3" x2="24977.3" y2="18918.3">
  </linearGradient>
  <linearGradient id="id51" gradientUnits="userSpaceOnUse" xlink:href="#id1" x1="2320.25" y1="17696.4" x2="3861.37" y2="18717.5">
  </linearGradient>
  <linearGradient id="id52" gradientUnits="userSpaceOnUse" xlink:href="#id27" x1="20168.5" y1="19976.3" x2="20261" y2="20180.4">
  </linearGradient>
  <linearGradient id="id53" gradientUnits="userSpaceOnUse" xlink:href="#id27" x1="19136.8" y1="20048.6" x2="19192.3" y2="20292.7">
  </linearGradient>
  <linearGradient id="id54" gradientUnits="userSpaceOnUse" xlink:href="#id1" x1="20474.8" y1="18165" x2="21322.9" y2="18726.9">
  </linearGradient>
  <linearGradient id="id55" gradientUnits="userSpaceOnUse" xlink:href="#id0" x1="25003.3" y1="17838.3" x2="25850.7" y2="19138.2">
  </linearGradient>
  <linearGradient id="id56" gradientUnits="userSpaceOnUse" x1="23107.8" y1="12665.7" x2="24001.5" y2="15285">
   <stop offset="0" style="stop-opacity:1; stop-color:#1E7FAA"/>
   <stop offset="1" style="stop-opacity:1; stop-color:#002878"/>
  </linearGradient>
  <linearGradient id="id57" gradientUnits="userSpaceOnUse" xlink:href="#id0" x1="20860.1" y1="17086.8" x2="21980.8" y2="18519.6">
  </linearGradient>
  <linearGradient id="id58" gradientUnits="userSpaceOnUse" xlink:href="#id1" x1="25488.7" y1="15572.1" x2="27569.5" y2="17849.5">
  </linearGradient>
  <linearGradient id="id59" gradientUnits="userSpaceOnUse" xlink:href="#id27" x1="18765.9" y1="13204.3" x2="19677.6" y2="14363.9">
  </linearGradient>
  <linearGradient id="id60" gradientUnits="userSpaceOnUse" xlink:href="#id0" x1="18044.5" y1="17391.6" x2="19819.7" y2="17887.4">
  </linearGradient>
  <linearGradient id="id61" gradientUnits="userSpaceOnUse" xlink:href="#id1" x1="12523.2" y1="17299.9" x2="13440.1" y2="18539.5">
  </linearGradient>
  <linearGradient id="id62" gradientUnits="userSpaceOnUse" xlink:href="#id1" x1="14578" y1="18157.5" x2="14763.5" y2="18828.8">
  </linearGradient>
  <linearGradient id="id63" gradientUnits="userSpaceOnUse" xlink:href="#id45" x1="12787.7" y1="2735.36" x2="18889" y2="17387.1">
  </linearGradient>
  <linearGradient id="id64" gradientUnits="userSpaceOnUse" xlink:href="#id1" x1="13933" y1="18808.7" x2="13978.4" y2="18864.8">
  </linearGradient>
  <linearGradient id="id65" gradientUnits="userSpaceOnUse" xlink:href="#id0" x1="22170.5" y1="18191" x2="22551.5" y2="18784.2">
  </linearGradient>
  <linearGradient id="id66" gradientUnits="userSpaceOnUse" xlink:href="#id39" x1="14454.5" y1="18195.4" x2="14623.6" y2="18806.8">
  </linearGradient>
  <linearGradient id="id67" gradientUnits="userSpaceOnUse" xlink:href="#id4" x1="6755.29" y1="11603.9" x2="8216.23" y2="13132.2">
  </linearGradient>
  <linearGradient id="id68" gradientUnits="userSpaceOnUse" x1="23035.8" y1="13410.1" x2="25569" y2="17578.8">
   <stop offset="0" style="stop-opacity:1; stop-color:#B9B339"/>
   <stop offset="0.25098" style="stop-opacity:1; stop-color:#B99C39"/>
   <stop offset="1" style="stop-opacity:1; stop-color:#BC6E32"/>
  </linearGradient>
 </defs>
 <g id="Layer_x0020_1">
  <metadata id="CorelCorpID_0Corel-Layer"/>
  <g id="_2200735377072">
   <path class="fil0" d="M27866 19831l-26444 0c-167,0 -303,136 -303,303 0,167 136,303 303,303l26444 0c168,0 303,-136 303,-303 0,-167 -135,-303 -303,-303z"/>
   <path class="fil1" d="M24664 19075l-281 0c7,-149 -2,-299 -21,-448 -23,-180 -64,-358 -121,-530 -7,-19 -13,-38 -20,-57 106,13 211,19 315,19 35,0 70,-1 104,-2 48,336 50,696 24,1018zm-309 0l-344 0c0,-349 -230,-694 -402,-988 -6,-9 -11,-19 -17,-28 -45,-79 -95,-155 -143,-233 139,63 286,114 440,152 88,23 177,40 266,53 10,28 20,56 29,84 57,169 101,343 130,519 23,146 39,294 41,441zm-466 -1097l0 0z"/>
   <path class="fil2" d="M24383 19075l-28 0 0 0c-2,-147 -18,-295 -41,-441 -29,-176 -73,-350 -130,-519 -9,-28 -19,-56 -29,-84 22,3 44,6 66,9 7,19 13,38 20,57 57,172 98,350 121,530 19,149 28,299 21,448l0 0z"/>
   <path class="fil3" d="M25827 19075l664 0c0,-851 963,-1687 237,-1777 -259,-32 -443,100 -574,306 -327,510 -327,1471 -327,1471z"/>
   <path class="fil4" d="M25915 19075l-142 0c62,-129 120,-261 174,-395 -8,145 -19,279 -32,395zm-281 0l-70 0c7,-195 7,-392 0,-588 -7,-170 -18,-340 -36,-509 130,196 280,368 403,451 -88,220 -186,437 -297,646zm-126 0l-408 0c-6,-357 -81,-707 -193,-1042 180,-26 356,-71 524,-132 24,196 42,393 55,590 13,195 21,390 22,584z"/>
   <path class="fil5" d="M25564 19075l-56 0 0 0c-1,-194 -9,-389 -22,-584 -13,-197 -31,-394 -55,-590 13,-5 26,-10 40,-15 18,31 38,62 57,92 18,169 29,339 36,509 7,196 7,393 0,588l0 0z"/>
   <path class="fil6" d="M24460 19075l676 0c0,0 179,-1425 -587,-1424 -697,1 -231,881 -89,1424z"/>
   <path class="fil7" d="M24661 18003c101,321 144,657 167,991 2,27 3,54 5,81l58 0c0,-29 -2,-57 -4,-85 -24,-339 -81,-678 -205,-995 -11,-25 -29,-17 -21,8z"/>
   <path class="fil8" d="M26081 19075l42 0c16,-129 35,-258 60,-386 37,-178 83,-354 143,-526 16,-43 34,-85 51,-127 9,-21 16,-42 26,-63l31 -61 30 -61c10,-20 20,-41 32,-60l72 -116c15,-24 3,-34 -14,-10l-78 114c-13,19 -24,39 -35,60l-33 60 -33 61c-11,21 -19,42 -29,63 -18,42 -38,84 -55,127 -66,172 -115,350 -152,531 -25,131 -45,262 -58,394z"/>
   <path class="fil9" d="M3802 19274l-725 0c0,-389 -257,-773 -448,-1099 -6,-11 -12,-21 -19,-32 -165,-285 -379,-550 -442,-881 -19,-97 -23,-201 23,-288 48,-93 146,-153 247,-179 1209,-310 1462,1304 1364,2479z"/>
   <path class="fil10" d="M3490 19274l-31 0c-2,-165 -20,-329 -46,-491 -32,-196 -81,-389 -144,-577 -126,-376 -319,-729 -571,-1037 -21,-26 -2,-40 19,-17 276,292 487,649 615,1033 64,192 109,390 135,590 21,166 31,332 23,499z"/>
   <path class="fil11" d="M5096 19274l739 0c0,-947 1071,-1877 263,-1977 -287,-36 -492,111 -638,340 -364,568 -364,1637 -364,1637z"/>
   <path class="fil12" d="M4288 19274l906 0c148,-1364 108,-4783 -1867,-4447 -1515,258 922,2227 961,4447z"/>
   <path class="fil13" d="M3792 15580c120,134 219,285 306,442 87,156 160,320 222,489 63,167 116,339 160,513 45,174 83,350 113,527 63,354 100,713 124,1073 14,216 23,433 25,650l62 0c8,-218 7,-436 0,-655 -14,-363 -48,-727 -112,-1086 -31,-179 -72,-358 -120,-534 -47,-176 -105,-350 -174,-519 -33,-85 -73,-168 -112,-251 -43,-81 -84,-162 -133,-240 -96,-155 -204,-305 -333,-434 -39,-41 -64,-18 -28,25z"/>
   <path class="fil14" d="M3575 19274l753 0c0,0 198,-1586 -653,-1585 -775,1 -258,981 -100,1585z"/>
   <path class="fil15" d="M3800 18081c112,357 159,730 185,1102 2,30 4,61 5,91l66 0c-1,-32 -3,-64 -5,-96 -28,-376 -90,-753 -229,-1106 -11,-27 -32,-19 -22,9z"/>
   <path class="fil16" d="M5379 19274l47 0c17,-144 39,-288 66,-430 41,-198 92,-394 160,-585 17,-48 37,-94 56,-141 10,-23 18,-47 29,-70l34 -68 34 -68c11,-23 22,-46 36,-67l79 -129c17,-27 4,-38 -15,-11l-86 127c-16,21 -27,43 -40,66l-37 67 -36 68c-12,23 -21,47 -32,70 -20,47 -42,94 -61,141 -74,192 -129,390 -170,591 -28,145 -49,292 -64,439z"/>
   <path class="fil17" d="M6401 15518c-321,-171 -770,522 -770,522 154,-472 674,-1685 222,-1986 -368,-243 -769,226 -904,590 108,-420 557,-1725 125,-1900 -377,-152 -653,467 -706,826 -44,-372 -101,-1633 -796,-1470 -669,173 -286,1333 -110,1756 -201,-251 -703,-766 -965,-367 -423,647 1172,1698 1172,1698 0,0 -956,-310 -949,276 11,829 974,1253 1682,1297 -1012,-88 -914,846 -194,1211 605,308 1344,257 1912,-114 381,-405 770,-2080 281,-2339z"/>
   <path class="fil18" d="M6012 16618c-41,128 -88,253 -139,376 -40,94 -85,185 -135,273 -314,-407 -599,-836 -852,-1283 80,-115 157,-233 225,-355 75,-134 145,-276 208,-419 63,-142 119,-288 168,-435 50,-147 94,-295 127,-445 -38,149 -88,294 -142,438 -55,144 -116,287 -183,424 -67,138 -142,275 -221,403 -67,110 -143,216 -222,318 -197,-348 -376,-716 -529,-1086 72,-137 142,-274 199,-419 34,-74 59,-151 89,-226 26,-77 54,-154 77,-231 47,-153 93,-310 131,-467 37,-156 71,-314 94,-472 -29,157 -67,312 -110,466 -43,155 -94,309 -145,458 -26,75 -57,149 -85,224 -32,73 -60,148 -95,219 -56,126 -122,246 -190,363 -287,-740 -500,-1479 -654,-2258 133,786 328,1533 597,2285 -127,-33 -253,-75 -377,-131 -143,-65 -285,-141 -422,-231 -137,-90 -272,-191 -402,-303 -130,-113 -256,-235 -374,-370 115,140 238,268 366,386 127,118 261,226 397,322 136,97 278,180 422,251 138,69 279,120 422,160 157,382 323,747 507,1117 -120,28 -246,43 -373,40 -148,-5 -302,-27 -453,-66 -152,-39 -305,-94 -456,-162 -150,-67 -300,-147 -446,-244 144,103 293,189 443,264 151,74 304,135 458,181 152,45 309,75 461,85 136,9 272,-2 403,-29 244,457 519,898 825,1317 -111,30 -224,54 -341,69 -146,18 -297,28 -449,25 -152,-3 -307,-14 -463,-36 -156,-22 -314,-54 -472,-99 158,52 317,90 474,119 157,29 314,46 469,55 154,9 307,5 457,-7 127,-11 251,-34 372,-63 364,487 764,951 1204,1371 52,-57 78,-86 131,-143 -445,-401 -850,-848 -1221,-1318 50,-100 96,-203 134,-308 46,-128 88,-258 123,-389 36,-131 69,-263 98,-394 28,-132 55,-264 77,-396 -27,131 -59,261 -94,390 -34,130 -72,259 -113,386z"/>
   <path class="fil19" d="M26276 18493c-83,0 -166,-8 -247,-25 46,-125 88,-251 128,-378 81,-9 162,-22 243,-43 95,-25 190,-55 284,-94 93,-40 186,-84 277,-136 90,-52 180,-110 266,-177 -88,63 -178,116 -270,164 -91,47 -184,88 -277,123 -93,35 -188,61 -282,82 -76,16 -151,26 -226,31 71,-235 129,-473 175,-714 107,-105 205,-219 293,-342 3,-2 6,-3 10,-4 91,-40 181,-92 266,-153 84,-62 165,-133 242,-211 77,-79 150,-165 216,-259 -69,91 -144,173 -222,247 -78,75 -161,142 -246,199 -73,49 -150,91 -227,124 143,-215 255,-455 327,-715 15,-9 32,-19 49,-28 86,-48 196,-95 293,-95 88,0 166,39 204,153 171,503 -307,964 -728,1154 96,-41 180,-59 251,-59 362,0 405,460 105,775 -236,247 -567,381 -904,381zm-345 -64c-123,-83 -273,-255 -403,-451 -19,-30 -39,-61 -57,-92 111,-42 219,-93 322,-150 40,56 82,109 125,162 46,57 97,110 150,161 -43,124 -89,248 -137,370zm153 -419c-50,-43 -98,-90 -143,-139 -43,-48 -85,-97 -125,-147 156,-88 302,-192 436,-310 -48,201 -104,400 -168,596zm953 -1919c48,-216 67,-433 58,-645 46,-91 89,-186 125,-286 -37,93 -80,182 -126,266 -7,-157 -30,-312 -66,-462 34,-22 70,-35 108,-35 40,0 81,14 125,47 292,223 -28,812 -224,1115z"/>
   <path class="fil20" d="M25713 19196c-45,-23 -67,-35 -112,-59 11,-20 22,-41 33,-62 111,-209 209,-426 297,-646 48,-122 94,-246 137,-370 -53,-51 -104,-104 -150,-161 -43,-53 -85,-106 -125,-162 8,-4 16,-8 23,-12 40,50 82,99 125,147 45,49 93,96 143,139 64,-196 120,-395 168,-596 32,-28 64,-58 95,-88 -46,241 -104,479 -175,714 75,-5 150,-15 226,-31 94,-21 189,-47 282,-82 93,-35 186,-76 277,-123 92,-48 182,-101 270,-164 -86,67 -176,125 -266,177 -91,52 -184,96 -277,136 -94,39 -189,69 -284,94 -81,21 -162,34 -243,43 -40,127 -82,253 -128,378 -27,71 -54,142 -82,212 -54,134 -112,266 -174,395 -20,41 -40,81 -60,121zm927 -2212c13,-19 26,-38 39,-57 77,-33 154,-75 227,-124 85,-57 168,-124 246,-199 78,-74 153,-156 222,-247 -66,94 -139,180 -216,259 -77,78 -158,149 -242,211 -85,61 -175,113 -266,153 -4,1 -7,2 -10,4zm455 -1538c0,-7 0,-14 -1,-20 46,-84 89,-173 126,-266 -36,100 -79,195 -125,286z"/>
   <path class="fil21" d="M26437 17551c163,-35 275,326 275,326 -9,-227 -87,-827 150,-903 192,-62 311,195 325,372 5,-198 -31,-831 181,-854 186,-20 231,288 209,453 66,-159 248,-708 534,-550 274,160 -39,624 -170,789 120,-86 406,-251 472,-42 106,338 -729,603 -729,603 0,0 461,-17 384,240 -107,365 -585,432 -903,363 457,87 298,487 -65,559 -306,60 -626,-55 -830,-289 -118,-226 -81,-1013 167,-1067z"/>
   <path class="fil22" d="M26472 18085c2,61 7,123 15,183 5,47 14,93 25,138 189,-141 369,-295 536,-461 -21,-60 -40,-122 -55,-184 -17,-69 -30,-140 -40,-211 -10,-70 -16,-142 -20,-213 -3,-71 -5,-142 0,-212 -2,70 2,141 8,211 6,70 15,141 28,210 12,69 28,139 47,205 16,57 36,114 58,168 130,-129 256,-269 369,-413 -15,-70 -28,-139 -36,-210 -5,-36 -7,-74 -11,-111 -1,-37 -4,-74 -5,-111 -2,-74 -2,-149 1,-223 3,-73 7,-147 17,-220 -7,73 -9,146 -10,220 0,73 3,148 7,220 3,36 7,73 10,109 5,36 8,73 15,109 8,63 23,123 38,184 219,-291 405,-591 570,-915 -157,330 -336,635 -548,934 60,1 121,-2 183,-11 71,-11 143,-27 215,-50 71,-22 144,-50 215,-83 71,-34 142,-72 211,-117 -68,48 -139,89 -210,125 -71,36 -143,67 -215,93 -72,25 -145,44 -218,58 -69,13 -138,18 -206,18 -117,149 -235,289 -363,429 50,28 104,50 160,64 66,17 137,26 208,28 72,1 147,-4 221,-15 75,-11 151,-27 228,-52 -77,28 -153,47 -229,61 -75,14 -151,22 -224,23 -73,1 -146,-5 -214,-20 -61,-12 -120,-35 -174,-63 -165,172 -342,332 -529,478 46,28 93,53 142,73 63,27 128,50 195,68 68,17 138,32 209,41 72,10 145,16 221,16 -77,3 -151,0 -224,-7 -73,-7 -145,-19 -214,-34 -69,-15 -136,-36 -201,-60 -54,-21 -106,-46 -156,-74 -222,169 -456,324 -702,455 -16,-32 -24,-48 -40,-80 246,-122 480,-268 703,-429 -10,-51 -17,-102 -21,-153 -4,-62 -7,-125 -6,-187 1,-62 3,-124 6,-186 4,-62 9,-123 16,-184 -5,61 -7,122 -8,184 -1,61 0,123 2,184z"/>
   <path class="fil23" d="M2910 19147c432,-82 743,242 763,262 19,-66 207,-678 817,-894 386,-138 726,-40 843,0 -78,-209 -37,-441 105,-607 154,-179 402,-251 632,-183 261,-403 740,-612 1211,-528 464,84 837,436 948,896 141,-210 393,-316 632,-264 213,46 384,209 449,422 290,-303 731,-417 1131,-289 356,112 628,399 728,755 286,-226 672,-311 1030,-199 536,169 873,738 756,1313 -587,0 -1173,0 -1760,0l-8944 0c65,-349 331,-622 659,-684z"/>
   <path class="fil24" d="M19295 19310c328,-63 565,184 581,200 15,-51 158,-517 622,-681 294,-105 553,-30 642,0 -59,-159 -28,-336 80,-463 117,-136 306,-191 482,-139 198,-307 563,-466 922,-402 353,64 637,332 722,682 107,-160 299,-241 481,-201 163,35 293,159 342,322 221,-232 557,-318 862,-221 271,86 478,304 554,576 218,-173 512,-238 784,-152 408,129 665,562 576,1000 -447,0 -893,0 -1340,0l-6812 0c49,-266 252,-474 502,-521z"/>
   <path class="fil25" d="M21290 19033l-399 0c0,-214 -141,-425 -246,-605 -4,-6 -7,-11 -10,-17 -91,-157 -209,-303 -244,-485 -10,-53 -12,-111 13,-159 26,-51 80,-84 136,-98 665,-170 804,718 750,1364z"/>
   <path class="fil26" d="M21119 19033l-17 0c-2,-90 -11,-181 -26,-270 -18,-108 -44,-214 -79,-318 -69,-206 -175,-401 -314,-570 -12,-15 -2,-22 10,-10 152,161 268,358 338,569 36,105 61,214 75,325 11,91 17,182 13,274z"/>
   <path class="fil27" d="M22002 19033l407 0c0,-521 589,-1033 145,-1088 -158,-20 -271,61 -352,187 -200,313 -200,901 -200,901z"/>
   <path class="fil28" d="M21558 19033l498 0c82,-750 59,-2632 -1027,-2447 -834,142 507,1226 529,2447z"/>
   <path class="fil29" d="M21285 17001c66,73 120,156 168,243 48,85 88,176 122,268 35,93 64,187 89,283 24,96 45,193 61,290 35,195 56,392 69,590 7,120 12,239 13,358l34 0c5,-120 5,-240 0,-360 -7,-200 -26,-400 -61,-598 -17,-99 -39,-197 -66,-294 -26,-97 -58,-192 -96,-285 -18,-47 -40,-93 -62,-138 -23,-45 -46,-90 -73,-132 -52,-86 -112,-168 -183,-239 -21,-23 -35,-10 -15,14z"/>
   <path class="fil30" d="M21166 19033l414 0c0,0 109,-872 -360,-872 -426,1 -142,540 -54,872z"/>
   <path class="fil31" d="M21289 18377c61,196 88,401 102,606 1,17 2,34 3,50l36 0c-1,-18 -2,-35 -3,-53 -15,-207 -49,-414 -126,-608 -6,-15 -17,-11 -12,5z"/>
   <path class="fil32" d="M22158 19033l26 0c9,-79 21,-158 36,-236 23,-110 51,-217 88,-322 10,-27 21,-52 31,-78 5,-13 10,-26 16,-39l19 -37 18 -37c6,-13 12,-26 20,-37l44 -71c9,-15 2,-21 -9,-6l-47 70c-9,11 -15,24 -22,36l-20 37 -20 37c-7,13 -12,26 -18,39 -11,26 -23,51 -33,78 -41,105 -71,214 -94,325 -15,80 -27,160 -35,241z"/>
   <path class="fil33" d="M22550 19831c-587,0 -1174,0 -1761,0l-8943 0c65,-349 330,-622 659,-684 48,-9 95,-13 140,-13 357,0 605,257 623,275 14,-47 114,-376 395,-637l0 863 4727 0 0 -1816c22,2 44,5 66,10 213,46 384,209 448,422 212,-221 503,-341 799,-341 112,0 224,17 333,52 356,112 628,399 728,755 201,-159 451,-248 706,-248 108,0 217,16 323,49 536,169 874,738 757,1313z"/>
   <path class="fil0" d="M23752 4977l1106 0 0 -923 -1029 0c-43,271 -72,576 -77,923zm-992 1294c286,517 748,922 1310,1131 -133,-235 -291,-604 -394,-1131l-916 0zm1538 1203c180,48 367,79 560,85l0 -1288 -995 0c114,584 295,976 435,1203zm-467 -1388l1027 0 0 -924 -1105 0c5,349 35,653 78,924zm2425 0l949 0c127,-285 208,-595 221,-924l-1092 0c-5,349 -35,653 -78,924zm-1213 185l0 1285c194,-9 383,-36 564,-86 139,-228 318,-619 432,-1199l-996 0zm793 1123c549,-212 1000,-614 1281,-1123l-891 0c-102,522 -258,888 -390,1123zm-1976 -3525l998 0 0 -1289c-196,7 -385,38 -567,87 -138,232 -318,622 -431,1202zm2213 185l-1030 0 0 923 1106 0c-4,-347 -33,-652 -76,-923zm-460 -1383c-182,-51 -373,-82 -570,-91l0 1289 999 0c-112,-577 -291,-965 -429,-1198zm1505 1198c-281,-507 -730,-910 -1277,-1122 131,238 285,605 386,1122l891 0zm-783 1108l1093 0c-13,-328 -90,-639 -217,-923l-953 0c43,270 72,576 77,923zm-2691 -923l-979 0c-128,283 -202,595 -214,923l1117 0c4,-347 33,-652 76,-923zm-76 1108l-1119 0c12,329 94,639 222,924l975 0c-43,-271 -73,-575 -78,-924zm2580 0l-1105 0 0 924 1028 0c43,-271 73,-575 77,-924zm-2084 -2423c-559,210 -1021,614 -1307,1130l918 0c102,-522 258,-892 389,-1130z"/>
   <path class="fil0" d="M5609 9353l926 0 0 -773 -861 0c-37,227 -61,483 -65,773zm-830 1082c239,433 626,772 1096,947 -111,-196 -243,-505 -329,-947l-767 0zm1287 1008c150,40 307,65 469,70l0 -1078 -833 0c96,489 247,817 364,1008zm-391 -1163l860 0 0 -772 -925 0c4,291 29,546 65,772zm2029 0l795 0c106,-238 174,-497 185,-772l-914 0c-4,291 -30,546 -66,772zm-1014 155l0 1076c162,-8 320,-30 472,-72 116,-191 266,-518 361,-1004l-833 0zm664 940c459,-177 836,-514 1071,-940l-746 0c-85,437 -215,744 -325,940zm-1655 -2949l836 0 0 -1079c-164,5 -323,31 -475,73 -116,194 -266,520 -361,1006zm1852 154l-861 0 0 773 925 0c-3,-290 -28,-546 -64,-773zm-384 -1157c-153,-43 -313,-69 -477,-76l0 1079 836 0c-94,-483 -244,-808 -359,-1003zm1259 1003c-235,-425 -611,-762 -1069,-939 110,199 239,506 323,939l746 0zm-656 927l915 0c-11,-275 -75,-535 -182,-773l-797 0c36,226 60,483 64,773zm-2251 -773l-820 0c-107,237 -168,498 -179,773l935 0c4,-290 28,-546 64,-773zm-64 928l-936 0c10,275 79,534 186,772l815 0c-36,-226 -61,-481 -65,-772zm2160 0l-925 0 0 772 859 0c37,-226 62,-481 66,-772zm-1744 -2028c-468,176 -855,514 -1094,946l768 0c85,-437 215,-747 326,-946z"/>
   <path class="fil34" d="M22020 16211l-15925 0 0 -10983c0,-340 276,-617 615,-617l1572 0 0 694 -1523 0 0 10124 8714 0 1 1 95 34c86,31 177,47 269,47 93,0 182,-16 270,-47l93 -34 1 -1 5713 0c-7,268 30,532 105,782zm3939 -2778c-201,-135 -424,-244 -664,-322l0 -7806 -1901 0 0 -694 1948 0c340,0 617,277 617,617l0 8205zm-10121 -8785l-105 -37 211 0 -106 37z"/>
   <path class="fil35" d="M6710 4611c-339,0 -615,277 -615,617l0 11568c0,340 276,617 615,617l18632 0c340,0 617,-277 617,-617l0 -11568c0,-340 -277,-617 -617,-617l-18632 0zm18632 12953l-18632 0c-422,0 -766,-344 -766,-768l0 -11568c0,-423 344,-767 766,-767l18632 0c423,0 767,344 767,767l0 11568c0,424 -344,768 -767,768z"/>
   <path class="fil36" d="M26034 16211l0 585c0,382 -311,692 -692,692l-18632 0c-382,0 -690,-310 -690,-692l0 -585 20014 0z"/>
   <path class="fil37" d="M21915 15429l-5713 0 7045 -2552c89,-31 147,-114 147,-209l0 -7363 1901 0 0 7806c-57,-18 -114,-35 -172,-49l0 0c-19,-5 -37,-9 -56,-14 -198,-45 -396,-67 -591,-67 -1155,0 -2199,762 -2486,1907 -1,2 -1,3 -1,5 -1,0 -1,0 -1,1 0,1 0,2 -1,3 0,0 0,1 0,1 0,1 0,2 -1,4 0,0 0,0 0,0 -43,176 -66,353 -71,527zm-6442 0l-8714 0 0 -10124 1523 0 0 7363c0,95 58,178 148,209l7043 2552z"/>
   <polygon class="fil35" points="13663,19635 18390,19635 18390,17488 13663,17488 "/>
   <polygon class="fil36" points="12297,20061 19757,20061 19757,19635 12297,19635 "/>
   <path class="fil38" d="M15838 15511c-92,0 -183,-16 -269,-47l-95 -34 -1 -1 729 0 -1 1 -93 34c-88,31 -177,47 -270,47zm7556 -10206l-649 0 0 -694 649 0 0 694zm-14463 0l-649 0 0 -694 649 0 0 694z"/>
   <path class="fil39" d="M23394 4611l-649 0 0 -75 649 0 0 75zm-14463 0l-649 0 0 -75 649 0 0 75z"/>
   <path class="fil40" d="M16202 15429l-729 0 -7043 -2552c-90,-31 -148,-114 -148,-209l0 -7363 649 0 0 7071c0,85 54,162 134,191l6527 2364c79,28 162,43 246,43 84,0 167,-15 246,-43l6527 -2364c81,-29 134,-106 134,-191l0 -7071 649 0 0 7363c0,95 -58,178 -147,209l-7045 2552z"/>
   <polygon class="fil41" points="15838,5045 14612,4611 15733,4611 15838,4648 15944,4611 17064,4611 "/>
   <path class="fil39" d="M17064 4611l-1120 0 22 -7 -1 -68 1313 0 -214 75zm-1331 0l-1121 0 -213 -75 1121 0 213 75z"/>
   <path class="fil42" d="M10316 18221c460,0 834,374 834,834 0,460 -374,834 -834,834l-6720 0 0 -1668 6720 0z"/>
   <polygon class="fil43" points="3596,19495 10762,19495 10762,19426 3596,19426 "/>
   <polygon class="fil43" points="3596,19225 10904,19225 10904,19155 3596,19155 "/>
   <polygon class="fil43" points="3596,18955 10904,18955 10904,18885 3596,18885 "/>
   <polygon class="fil43" points="3596,18685 10763,18685 10763,18615 3596,18615 "/>
   <path class="fil35" d="M3437 18049l6879 0c555,0 1006,451 1006,1006 0,555 -451,1006 -1006,1006l-6879 0 0 -344 6879 0c366,0 663,-297 663,-662 0,-365 -297,-662 -663,-662l-6879 0 0 -344z"/>
   <path class="fil42" d="M5273 17878c-460,0 -834,-375 -834,-834 0,-460 374,-834 834,-834l6720 0 0 1668 -6720 0z"/>
   <polygon class="fil43" points="4827,16673 11994,16673 11994,16604 4827,16604 "/>
   <polygon class="fil43" points="4686,16943 11994,16943 11994,16874 4686,16874 "/>
   <polygon class="fil43" points="4686,17213 11994,17213 11994,17144 4686,17144 "/>
   <polygon class="fil43" points="4826,17483 11994,17483 11994,17414 4826,17414 "/>
   <path class="fil44" d="M12152 18049l-6879 0c-555,0 -1006,-451 -1006,-1005 0,-555 451,-1006 1006,-1006l6879 0 0 343 -6879 0c-365,0 -662,297 -662,663 0,365 297,662 662,662l6879 0 0 343z"/>
   <path class="fil42" d="M4153 15866c-460,0 -834,-374 -834,-834 0,-460 374,-834 834,-834l6720 0 0 1668 -6720 0z"/>
   <polygon class="fil43" points="3707,14650 10873,14650 10873,14604 3707,14604 "/>
   <polygon class="fil43" points="3565,14920 10873,14920 10873,14874 3565,14874 "/>
   <polygon class="fil43" points="3565,15190 10873,15190 10873,15144 3565,15144 "/>
   <polygon class="fil43" points="3706,15460 10873,15460 10873,15414 3706,15414 "/>
   <path class="fil45" d="M11032 16038l-6879 0c-555,0 -1006,-451 -1006,-1006 0,-554 451,-1006 1006,-1006l6879 0 0 344 -6879 0c-365,0 -662,297 -662,662 0,365 297,662 662,662l6879 0 0 344z"/>
   <path class="fil46" d="M22656 3149c-34,-23 -74,-35 -114,-35 -25,0 -51,5 -75,14l-649 259 -5980 2112 -5980 -2112 -648 -259c-24,-9 -50,-14 -75,-14 -41,0 -80,12 -115,35 -55,38 -89,101 -89,168l0 9059c0,85 54,162 134,191l6527 2364c79,28 162,43 246,43 84,0 167,-15 246,-43l6527 -2364c81,-29 134,-106 134,-191l0 -9059c0,-67 -33,-130 -89,-168z"/>
   <polygon class="fil47" points="21890,2907 21890,12110 22542,12400 22542,3342 "/>
   <path class="fil48" d="M16011 14187c-56,20 -114,30 -173,30 -58,0 -117,-10 -173,-30l-5878 -2077 -652 290 6527 2364c113,42 239,42 353,0l6527 -2364 -653 -290 -5878 2077z"/>
   <polygon class="fil49" points="9787,2907 9135,3342 9135,12400 9787,12110 "/>
   <path class="fil49" d="M15838 14217c59,0 117,-10 173,-30l5878 -2077 0 -9203 -6051 2138 0 9172z"/>
   <path class="fil50" d="M16465 13186c-25,0 -49,-16 -57,-41 -12,-32 5,-66 37,-78l4420 -1561c7,-3 13,-4 20,-4 25,0 49,16 58,41 11,32 -6,66 -37,78l-4421 1561c-6,3 -13,4 -20,4zm0 -637c-25,0 -49,-16 -57,-41 -12,-32 5,-67 37,-78l4420 -1562c7,-2 13,-3 20,-3 25,0 49,16 58,41 11,31 -6,66 -37,77l-4421 1562c-6,3 -13,4 -20,4zm0 -637c-25,0 -49,-16 -57,-41 -12,-32 5,-67 37,-78l4420 -1561c7,-3 13,-4 20,-4 25,0 49,16 58,41 11,32 -6,67 -37,78l-4421 1561c-6,2 -13,4 -20,4zm0 -638c-25,0 -49,-15 -57,-40 -12,-32 5,-67 37,-78l4420 -1561c7,-3 13,-4 20,-4 25,0 49,16 58,41 11,32 -6,66 -37,78l-4421 1561c-6,2 -13,3 -20,3zm0 -637c-25,0 -49,-15 -57,-40 -12,-32 5,-67 37,-78l4420 -1562c7,-2 13,-3 20,-3 25,0 49,16 58,41 11,31 -6,66 -37,78l-4421 1561c-6,2 -13,3 -20,3zm0 -636c-25,0 -49,-16 -57,-41 -12,-32 5,-67 37,-78l4420 -1562c7,-2 13,-3 20,-3 25,0 49,15 58,41 11,31 -6,66 -37,77l-4421 1562c-6,3 -13,4 -20,4zm0 -638c-25,0 -49,-15 -57,-40 -12,-32 5,-67 37,-78l4420 -1562c7,-2 13,-3 20,-3 25,0 49,15 58,40 11,32 -6,67 -37,78l-4421 1562c-6,2 -13,3 -20,3zm0 -637c-25,0 -49,-15 -57,-40 -12,-32 5,-67 37,-78l4420 -1562c7,-2 13,-3 20,-3 25,0 49,16 58,41 11,31 -6,66 -37,77l-4421 1562c-6,2 -13,3 -20,3zm0 -637c-25,0 -49,-15 -57,-41 -12,-31 5,-66 37,-77l4420 -1562c7,-2 13,-3 20,-3 25,0 49,15 58,41 11,31 -6,66 -37,77l-4421 1562c-6,2 -13,3 -20,3zm0 -637c-25,0 -49,-16 -57,-41 -12,-31 5,-66 37,-77l4420 -1562c7,-2 13,-3 20,-3 25,0 49,15 58,40 11,32 -6,67 -37,78l-4421 1562c-6,2 -13,3 -20,3zm0 -637c-25,0 -49,-15 -57,-40 -12,-32 5,-67 37,-78l4420 -1562c7,-2 13,-3 20,-3 25,0 49,15 58,40 11,32 -6,67 -37,78l-4421 1562c-6,2 -13,3 -20,3zm0 -637c-25,0 -49,-15 -57,-40 -12,-32 5,-67 37,-78l4420 -1562c7,-2 13,-4 20,-4 25,0 49,16 58,41 11,32 -6,67 -37,78l-4421 1562c-6,2 -13,3 -20,3zm0 -637c-25,0 -49,-16 -57,-41 -12,-31 5,-66 37,-77l4420 -1562c7,-3 13,-4 20,-4 25,0 49,16 58,41 11,32 -6,67 -37,78l-4421 1562c-6,2 -13,3 -20,3z"/>
   <path class="fil47" d="M15838 14217c-58,0 -117,-10 -173,-30l-5878 -2077 0 -9203 6051 2138 0 9172z"/>
   <path class="fil51" d="M15211 13186c-7,0 -13,-1 -20,-4l-4420 -1561c-32,-12 -49,-46 -37,-78 8,-25 32,-41 57,-41 7,0 14,1 20,4l4420 1561c32,12 49,46 38,78 -9,25 -33,41 -58,41zm0 -637c-7,0 -13,-1 -20,-4l-4420 -1562c-32,-11 -49,-46 -37,-77 8,-25 32,-41 57,-41 7,0 14,1 20,3l4420 1562c32,11 49,46 38,78 -9,25 -33,41 -58,41zm0 -637c-7,0 -13,-2 -20,-4l-4420 -1561c-32,-11 -49,-46 -37,-78 8,-25 32,-41 57,-41 7,0 14,1 20,4l4420 1561c32,11 49,46 38,78 -9,25 -33,41 -58,41zm0 -638c-7,0 -13,-1 -20,-3l-4420 -1561c-32,-12 -49,-46 -37,-78 8,-25 32,-41 57,-41 7,0 14,1 20,4l4420 1561c32,11 49,46 38,78 -9,25 -33,40 -58,40zm0 -637c-7,0 -13,-1 -20,-3l-4420 -1561c-32,-12 -49,-47 -37,-78 8,-25 32,-41 57,-41 7,0 14,1 20,3l4420 1562c32,11 49,46 38,78 -9,25 -33,40 -58,40zm0 -636c-7,0 -13,-1 -20,-4l-4420 -1562c-32,-11 -49,-46 -37,-77 8,-26 32,-41 57,-41 7,0 14,1 20,3l4420 1562c32,11 49,46 38,78 -9,25 -33,41 -58,41zm0 -638c-7,0 -13,-1 -20,-3l-4420 -1562c-32,-11 -49,-46 -37,-78 8,-25 32,-40 57,-40 7,0 14,1 20,3l4420 1562c32,11 49,46 38,78 -9,25 -33,40 -58,40zm0 -637c-7,0 -13,-1 -20,-3l-4420 -1562c-32,-11 -49,-46 -37,-77 8,-25 32,-41 57,-41 7,0 14,1 20,3l4420 1562c32,11 49,46 38,78 -9,25 -33,40 -58,40zm0 -637c-7,0 -13,-1 -20,-3l-4420 -1562c-32,-11 -49,-46 -37,-77 8,-26 32,-41 57,-41 7,0 14,1 20,3l4420 1562c32,11 49,46 38,77 -9,26 -33,41 -58,41zm0 -637c-7,0 -13,-1 -20,-3l-4420 -1562c-32,-11 -49,-46 -37,-78 8,-25 32,-40 57,-40 7,0 14,1 20,3l4420 1562c32,11 49,46 38,77 -9,25 -33,41 -58,41zm0 -637c-7,0 -13,-1 -20,-3l-4420 -1562c-32,-11 -49,-46 -37,-78 8,-25 32,-40 57,-40 7,0 14,1 20,3l4420 1562c32,11 49,46 38,78 -9,25 -33,40 -58,40zm0 -637c-7,0 -13,-1 -20,-3l-4420 -1562c-32,-11 -49,-46 -37,-78 8,-25 32,-41 57,-41 7,0 14,2 20,4l4420 1562c32,11 49,46 38,78 -9,25 -33,40 -58,40zm0 -637c-7,0 -13,-1 -20,-3l-4420 -1562c-32,-11 -49,-46 -37,-78 8,-25 32,-41 57,-41 7,0 14,1 20,4l4420 1562c32,11 49,46 38,77 -9,25 -33,41 -58,41z"/>
   <polygon class="fil52" points="15955,4926 16034,14564 16340,14080 16656,14345 16550,4716 "/>
   <path class="fil53" d="M22758 13627c-7,7 -14,13 -22,20m1912 2509c-2,0 -3,12 -5,19 102,34 165,54 217,54 81,0 138,-49 277,-171 13,12 30,39 41,39 0,0 1,0 1,0 48,-12 104,-21 140,-52 32,-28 64,-37 96,-37 35,0 70,11 107,17 23,4 46,6 68,6 125,0 234,-59 342,-120 -27,-82 34,-110 85,-151 47,-39 81,-92 123,-136 18,-19 42,-31 77,-56 -5,54 -7,91 -9,112 34,-17 77,-38 115,-57 -51,-45 43,-54 42,-94 0,-38 18,-77 27,-115 42,-58 116,-67 163,-132 87,-120 83,-242 67,-373 -2,-19 -4,-37 -7,-55 -19,-102 -15,-102 15,-232 12,-53 -2,-112 4,-167 7,-52 41,-105 35,-154 -6,-51 3,-90 21,-122 -7,-11 -14,-22 -22,-33l-1 -3c-23,-33 -46,-66 -70,-99l-8 -11c-9,-11 -17,-22 -25,-33l-9 -11c-132,-168 -285,-322 -458,-455 -27,8 -58,20 -83,27 -11,-16 -24,-37 -44,-68 21,-3 39,-6 59,-10 -71,-52 -146,-100 -223,-145 -28,6 -58,13 -89,20 4,20 10,48 18,88 -31,8 -70,19 -150,40 48,-69 72,-102 92,-131 -25,-41 -51,-82 -78,-125 -37,-17 -74,-33 -111,-48l-3 -1 -2 -1 0 -1 -3 0 -2 -1 -3 -1 -2 -1 -1 -1c-11,-4 -21,-8 -32,-12l0 0c-28,-2 -59,-3 -94,-5 7,-9 12,-17 17,-24 -35,-12 -71,-24 -107,-35 9,26 19,52 30,82 55,14 115,29 176,44 -2,10 -4,20 -6,30 -67,-13 -133,-26 -210,-42 -135,59 -280,122 -437,190 17,35 35,72 56,116 -16,16 -33,33 -54,54 31,28 65,58 99,88 108,-57 142,-74 196,-74 25,0 54,3 96,9 -41,-53 -81,-104 -123,-158 22,-13 39,-23 57,-33 44,-24 75,-37 98,-37 37,0 56,35 85,119 12,37 35,70 59,116 -33,13 -68,27 -142,55 77,20 114,36 150,36 0,0 1,0 1,0 32,0 76,-19 107,-19 16,0 28,5 34,21 29,79 105,122 126,200 12,46 2,91 -48,112 -46,20 -93,42 -141,50 -16,3 -32,4 -49,4 -35,0 -72,-4 -116,-5 -28,49 -13,157 -122,157 -9,0 -18,0 -28,-2 -9,-74 45,-163 -31,-230 -8,-7 -3,-45 8,-54 80,-68 31,-159 46,-234 -37,-27 -69,-37 -98,-37 -99,0 -159,129 -259,158 -12,-43 -21,-75 -31,-112 -21,4 -43,2 -56,12 -28,23 -57,49 -77,79 -33,51 -80,74 -135,79 -73,7 -133,36 -193,101 39,55 119,62 149,130 26,60 83,106 135,170 -43,28 -74,48 -102,66 -40,-29 -73,-52 -106,-76 -8,9 -15,18 -23,27 61,60 123,120 190,185 11,-22 19,-39 31,-63 42,23 86,48 134,74 -4,30 -8,61 -12,93 60,49 131,84 143,177 4,28 49,52 75,78 -77,87 -81,101 -34,160 52,64 106,126 155,184 -31,109 -123,182 -103,309 66,-73 122,-136 188,-210 67,2 153,5 236,8 5,40 7,64 10,88 31,-1 56,-2 78,-2 93,0 110,21 202,136 -26,101 -51,204 -78,308 -46,27 -86,68 -145,68 -15,0 -30,-2 -47,-8 -83,-27 -72,-93 -91,-149 -39,-10 -78,-19 -127,-32 6,79 11,154 18,243 -66,-12 -128,-24 -207,-38 -20,34 -53,69 -60,108 -21,125 -43,156 -150,156 -7,0 -15,-1 -23,-1 -37,-1 -75,-5 -112,-7l0 0zm554 -2560l0 0zm-1006 1990c100,86 230,35 295,141 28,-21 57,-42 83,-61 -10,-24 -13,-44 -19,-45 -111,-12 -221,-22 -359,-35zm507 -10c-2,0 -4,0 -5,0 -16,1 -31,29 -49,48 38,32 74,44 109,44 39,0 77,-15 114,-31 38,-15 75,-30 113,-30 3,0 6,0 10,0 24,10 45,58 72,58 15,0 33,-15 54,-60 -68,-16 -129,-53 -194,-53 -32,0 -65,9 -100,33 -7,4 -16,6 -25,6 -15,0 -31,-4 -49,-8 -17,-3 -35,-7 -50,-7zm-362 -1521c-51,19 -101,39 -162,62 -4,17 -12,48 -20,78 69,2 134,4 210,6 -7,-28 -13,-51 -18,-74 -4,-24 -7,-48 -10,-72zm-534 -909c-27,0 -51,10 -96,28 51,55 76,81 107,81 29,0 65,-24 134,-69 -77,-27 -114,-40 -145,-40zm-1821 1756l0 -1 0 0 0 0 0 0 1 0 0 0 0 0 0 0 0 0 0 0 0 -1 0 0 0 0 0 0 0 0 0 0 0 0 0 0 0 -1 0 0 0 0 0 0 0 0 0 0 0 0 0 -1 0 0 0 0 0 0 0 0 0 1 0 0 0 0 0 0 0 0 0 0 0 0 0 1 0 0 0 0 0 0 0 0 0 0 0 0 0 0 0 1 0 0 0 0 0 0 0 0 0 0 -1 0 0 0 0 0 0 0 0 1zm1 -5l1 0 0 0 0 0 0 -1 0 0 0 0 0 0 0 0 0 0 0 0 0 0 0 -2 0 0 0 0 0 2 0 0 0 0 0 0 0 0 0 0 0 0 0 0 0 1 0 0 0 0 -1 0zm3439 -1393c-11,-10 -22,-20 -33,-30 35,-54 70,-109 99,-153 44,11 74,18 114,28 -66,58 -123,106 -180,155z"/>
   <path class="fil54" d="M21986 14902c0,0 0,0 0,0 0,0 0,0 0,0zm1 -4c0,0 0,-1 0,-1 0,0 0,1 0,1zm1 -4c0,-1 0,-1 1,-1 -1,0 -1,0 -1,1zm3135 -1832c-19,-5 -37,-9 -56,-14 19,5 37,9 56,14z"/>
   <path class="fil55" d="M24018 18007c-43,-8 -86,-18 -129,-29 -9,-2 -18,-4 -26,-6 -34,-121 -71,-241 -184,-313 -42,-27 -66,-53 -82,-96 -8,-20 -13,-50 -28,-56 -143,-61 -206,-183 -245,-320 -22,-75 -80,-126 -137,-142 -122,-35 -152,-123 -184,-224 -47,-151 -79,-309 -185,-436 -4,-5 -9,-11 -9,-17 -1,-31 -1,-62 -1,-102 7,1 14,2 20,2 30,0 56,-14 82,-27 26,-14 51,-28 80,-28 11,0 22,2 35,7 27,10 53,14 80,14 47,0 93,-12 141,-23 3,-1 6,-1 9,-1 25,0 56,20 93,33 48,-63 107,-141 169,-224 71,1 152,3 239,5 96,-41 200,-84 299,-126 34,29 46,62 88,62 9,0 18,-2 29,-4 37,-10 79,-25 120,-25 37,0 74,13 105,54 13,-28 21,-44 36,-74 39,46 48,110 117,119 79,11 3,134 93,145 -18,70 -36,141 -59,236 31,51 72,118 113,184 -68,43 -8,121 -36,170 -71,48 -139,88 -199,137 -53,42 -93,103 -149,139 -62,38 -137,57 -191,78 -68,218 -88,417 -47,619 -13,20 -43,46 -42,70 4,59 -1,117 -10,174 -2,9 -3,17 -5,25zm-129 -29l0 0zm971 -1749c-52,0 -115,-20 -217,-54 2,-7 3,-19 5,-19 37,2 75,6 112,7 8,0 16,1 23,1 107,0 129,-31 150,-156 7,-39 40,-74 60,-108 79,14 141,26 207,38 -7,-89 -12,-164 -18,-243 49,13 88,22 127,32 19,56 8,122 91,149 17,6 32,8 47,8 59,0 99,-41 145,-68 27,-104 52,-207 78,-308 -92,-115 -109,-136 -202,-136 -22,0 -47,1 -78,2 -3,-24 -5,-48 -10,-88 -83,-3 -169,-6 -236,-8 -66,74 -122,137 -188,210 -20,-127 72,-200 103,-309 -49,-58 -103,-120 -155,-184 -47,-59 -43,-73 34,-160 -26,-26 -71,-50 -75,-78 -12,-93 -83,-128 -143,-177 4,-32 8,-63 12,-93 -48,-26 -92,-51 -134,-74 -12,24 -20,41 -31,63 -67,-65 -129,-125 -190,-185 8,-9 15,-18 23,-27 33,24 66,47 106,76 28,-18 59,-38 102,-66 -52,-64 -109,-110 -135,-170 -30,-68 -110,-75 -149,-130 60,-65 120,-94 193,-101 55,-5 102,-28 135,-79 20,-30 49,-56 77,-79 13,-10 35,-8 56,-12 10,37 19,69 31,112 100,-29 160,-158 259,-158 29,0 61,10 98,37 -15,75 34,166 -46,234 -11,9 -16,47 -8,54 76,67 22,156 31,230 10,2 19,2 28,2 109,0 94,-108 122,-157 44,1 81,5 116,5 17,0 33,-1 49,-4 48,-8 95,-30 141,-50 50,-21 60,-66 48,-112 -21,-78 -97,-121 -126,-200 -6,-16 -18,-21 -34,-21 -31,0 -75,19 -107,19 0,0 -1,0 -1,0 -36,0 -73,-16 -150,-36 74,-28 109,-42 142,-55 -24,-46 -47,-79 -59,-116 -29,-84 -48,-119 -85,-119 -23,0 -54,13 -98,37 -18,10 -35,20 -57,33 42,54 82,105 123,158 -42,-6 -71,-9 -96,-9 -54,0 -88,17 -196,74 -34,-30 -68,-60 -99,-88 21,-21 38,-38 54,-54 -21,-44 -39,-81 -56,-116 157,-68 302,-131 437,-190 77,16 143,29 210,42 2,-10 4,-20 6,-30 -61,-15 -121,-30 -176,-44 -11,-30 -21,-56 -30,-82 36,11 72,23 107,35 -5,7 -10,15 -17,24 35,2 66,3 94,5 54,21 107,43 159,67 27,43 53,84 78,125 -20,29 -44,62 -92,131 80,-21 119,-32 150,-40 -8,-40 -14,-68 -18,-88 31,-7 61,-14 89,-20 77,45 152,93 223,145 -20,4 -38,7 -59,10 20,31 33,52 44,68 25,-7 56,-19 83,-27 235,181 435,400 593,645 -18,32 -27,71 -21,122 6,49 -28,102 -35,154 -6,55 8,114 -4,167 -30,130 -34,130 -15,232 3,18 5,36 7,55 16,131 20,253 -67,373 -47,65 -121,74 -163,132 -9,38 -27,77 -27,115 1,40 -93,49 -42,94 -38,19 -81,40 -115,57 2,-21 4,-58 9,-112 -35,25 -59,37 -77,56 -42,44 -76,97 -123,136 -51,41 -112,69 -85,151 -108,61 -217,120 -342,120 -22,0 -45,-2 -68,-6 -37,-6 -72,-17 -107,-17 -32,0 -64,9 -96,37 -36,31 -92,40 -140,52 0,0 -1,0 -1,0 -11,0 -28,-27 -41,-39 -139,122 -196,171 -277,171zm-212 -73l0 0zm844 -2835c-29,44 -64,99 -99,153 11,10 22,20 33,30 57,-49 114,-97 180,-155 -40,-10 -70,-17 -114,-28zm-1001 2406c-65,-106 -195,-55 -295,-141 138,13 248,23 359,35 6,1 9,21 19,45 -26,19 -55,40 -83,61zm267 -59c-35,0 -71,-12 -109,-44 18,-19 33,-47 49,-48 1,0 3,0 5,0 15,0 33,4 50,7 18,4 34,8 49,8 9,0 18,-2 25,-6 35,-24 68,-33 100,-33 65,0 126,37 194,53 -21,45 -39,60 -54,60 -27,0 -48,-48 -72,-58 -4,0 -7,0 -10,0 -38,0 -75,15 -113,30 -37,16 -75,31 -114,31zm-2662 -60c-57,-43 -118,-88 -181,-135 1,-188 24,-380 71,-571 0,0 0,0 0,0 1,-2 1,-3 1,-4 0,0 0,-1 0,-1 1,-1 1,-2 1,-3 0,-1 0,-1 1,-1 0,-2 0,-3 1,-5 73,-291 195,-557 355,-792l16 1c10,28 12,83 40,106 82,67 76,145 55,232 -9,37 -24,80 -14,113 48,150 1,303 44,459 -36,-2 -54,-3 -93,-4 -7,76 -58,136 -17,214 14,26 -2,97 -25,109 -124,65 -127,233 -255,282zm2273 -1407c-76,-2 -141,-4 -210,-6 8,-30 16,-61 20,-78 61,-23 111,-43 162,-62 3,24 6,48 10,72 5,23 11,46 18,74zm-1927 -3c29,-69 -70,-144 40,-197 5,-41 27,-82 30,-123 141,-165 303,-311 480,-434 16,-5 31,-8 47,-8 36,0 73,15 112,48 -30,38 -60,76 -82,103 -87,4 -166,7 -253,11 9,45 16,73 29,136 -58,32 -126,69 -198,108 28,33 60,71 78,92 -53,91 -96,165 -140,241 -38,6 -80,13 -143,23zm1694 -652c37,-51 84,-88 80,-117 -9,-54 -31,-97 41,-120 -24,-20 -47,-40 -71,-59 8,-28 14,-54 22,-84 -17,-8 -37,-13 -49,-26 -11,-11 -13,-32 -23,-62 46,-14 87,-23 123,-59 12,-11 24,-22 37,-31 60,-5 120,-7 180,-7 195,0 393,22 591,67 19,5 37,9 56,14 9,2 19,5 28,7 -15,12 -33,20 -54,20 -12,0 -26,-2 -41,-8 -21,-7 -42,-11 -62,-11 -48,0 -92,22 -132,69 -40,47 -124,38 -167,95 -3,4 -9,5 -16,5 -6,0 -12,-1 -18,-1 -7,-1 -13,-1 -18,-1 0,0 -1,0 -1,0 11,27 21,50 38,91 -71,27 -159,33 -193,78 -85,118 -198,133 -351,140zm987 -484l0 0zm-1305 193c-31,0 -56,-26 -107,-81 45,-18 69,-28 96,-28 31,0 68,13 145,40 -69,45 -105,69 -134,69z"/>
   <path class="fil35" d="M24548 12562c-61,0 -111,50 -111,111 0,61 50,110 111,110 1534,0 2783,1249 2783,2783 0,1534 -1249,2783 -2783,2783 -887,0 -1701,-409 -2232,-1121 -21,-28 -54,-45 -89,-45 -24,0 -47,8 -66,22 -49,37 -59,106 -22,155 573,769 1451,1210 2409,1210 1656,0 3004,-1348 3004,-3004 0,-1656 -1348,-3004 -3004,-3004z"/>
   <polygon class="fil35" points="24424,19498 24672,19498 24672,18459 24424,18459 "/>
   <path class="fil35" d="M23029 20043l3104 0 0 -219c0,-207 -168,-375 -376,-375l-2353 0c-207,0 -375,168 -375,375l0 219z"/>
   <path class="fil0" d="M14795 1989l252 263c244,-234 573,-378 938,-378 364,0 693,144 938,378l251 -263c-309,-296 -727,-479 -1189,-479 -462,0 -881,183 -1190,479zm1190 -1253c-670,0 -1277,264 -1726,694l252 262c383,-366 901,-592 1474,-592 572,0 1090,226 1473,592l252 -262c-448,-430 -1056,-694 -1725,-694zm-668 1799l251 262c109,-103 254,-167 417,-167 162,0 307,64 416,167l251 -262c-173,-167 -408,-269 -667,-269 -260,0 -494,102 -668,269zm668 411c-158,0 -286,128 -286,286 0,158 128,286 286,286 157,0 285,-128 285,-286 0,-158 -128,-286 -285,-286z"/>
   <path class="fil0" d="M3117 6038l153 161c150,-143 351,-231 574,-231 223,0 424,88 573,231l154 -161c-189,-181 -445,-292 -727,-292 -283,0 -538,111 -727,292zm727 -766c-410,0 -781,162 -1055,424l154 161c234,-224 551,-362 901,-362 350,0 666,138 900,362l154 -161c-274,-262 -645,-424 -1054,-424zm-408 1100l153 160c67,-63 156,-102 255,-102 99,0 188,39 254,102l154 -160c-106,-102 -250,-165 -408,-165 -159,0 -302,63 -408,165zm408 251c-97,0 -175,78 -175,175 0,96 78,174 175,174 96,0 174,-78 174,-174 0,-97 -78,-175 -174,-175z"/>
   <path class="fil56" d="M19424 20107c-20,-142 -83,-347 -116,-505 -33,-159 -326,-148 -249,73 78,222 111,390 111,390 0,0 -8,98 108,106 115,8 151,-43 146,-64z"/>
   <path class="fil56" d="M19449 18247c-169,-14 -181,-956 -155,-1357 26,-400 122,-710 327,-693 206,17 248,339 207,738 -41,399 -211,1327 -379,1312z"/>
   <path class="fil56" d="M20253 19988c-139,56 -650,-1164 -762,-1440 -111,-276 -207,-576 -52,-639 156,-63 295,220 407,496 111,276 546,1527 407,1583z"/>
   <path class="fil56" d="M20339 20135c-91,63 -279,103 -296,71 -18,-31 12,-121 38,-185l0 -1c8,-19 15,-36 21,-49 7,-15 11,-25 11,-25 0,0 -302,-1193 -246,-1208 61,-16 465,1168 465,1168 0,0 2,7 5,18l5 15 31 103c4,12 33,48 -34,93z"/>
   <path class="fil57" d="M20339 20135c-91,63 -279,103 -296,71 -18,-31 12,-121 38,-185l0 -1c8,-19 15,-36 21,-49 6,12 15,30 21,46 12,27 28,27 83,-9 40,-26 101,-53 136,-69 0,0 36,76 46,102 4,12 18,49 -49,94z"/>
   <path class="fil56" d="M20257 15672c-112,46 -445,-582 -566,-859 -121,-277 -167,-517 -30,-574 137,-57 275,145 386,426 111,281 322,960 210,1007z"/>
   <path class="fil56" d="M19622 16832c-98,-45 206,-780 299,-984 94,-204 208,-413 318,-362 110,50 26,272 -67,476 -94,204 -452,915 -550,870z"/>
   <path class="fil56" d="M19703 16642c120,45 17,247 -20,315 -61,110 -231,164 -274,141 -44,-23 113,-262 108,-276 -5,-13 -77,123 -115,97 -38,-26 56,-187 119,-237 62,-49 107,-67 182,-40z"/>
   <path class="fil56" d="M18645 18298c-165,-37 -54,-973 24,-1366 78,-394 213,-689 415,-645 201,44 201,369 108,759 -93,390 -382,1288 -547,1252z"/>
   <path class="fil56" d="M19323 20082c-143,45 -579,-1206 -668,-1490 -89,-284 -161,-591 0,-641 160,-51 276,242 365,526 89,284 446,1560 303,1605z"/>
   <path class="fil58" d="M19424 20107l1 141c0,14 -12,26 -26,26l-453 2c-40,0 -57,-50 -25,-74 66,-49 171,-99 249,-137 18,16 46,67 79,73 32,6 175,-31 175,-31z"/>
   <path class="fil56" d="M19832 16572l-1049 -43 -46 -1795 73 -450 484 -178 312 59c177,34 304,192 297,373l-113 1270 42 764z"/>
   <path class="fil56" d="M19411 13885l0 360c0,0 -76,46 -255,46 -96,0 -117,-46 -117,-46l0 -133 372 -227z"/>
   <path class="fil56" d="M19453 13616c-1,13 -1,25 -2,37l0 13c9,214 -128,443 -335,474l-5 1 -7 0c-44,6 -204,19 -263,-46 -68,-75 -130,-214 -130,-309 0,-95 18,-118 18,-156 0,-30 -16,-124 -17,-164 -1,-191 128,-381 356,-381 342,0 395,301 385,531z"/>
   <path class="fil59" d="M18777 14272c-73,67 -130,186 -143,428 -4,67 -54,253 36,479 160,399 62,894 62,894l1087 40c0,0 23,-729 60,-961 112,-701 -1,-927 -196,-982 -293,-82 -833,34 -906,102z"/>
   <path class="fil56" d="M17960 15451c-92,-78 315,-653 506,-884 191,-231 383,-379 495,-283 112,96 -5,308 -204,532 -200,224 -706,714 -797,635z"/>
   <path class="fil56" d="M16953 14445c71,-81 682,417 850,564 167,147 333,314 254,404 -80,90 -267,-52 -434,-199 -168,-147 -741,-689 -670,-769z"/>
   <path class="fil56" d="M16736 14202c28,-32 180,118 230,157 7,6 12,10 14,9l1 -6c-8,-24 -69,-108 -39,-135 32,-29 152,85 193,158l7 12c33,72 40,120 -4,185 -71,105 -242,-41 -298,-93 -48,-44 -82,-109 -101,-168 -16,-54 -19,-102 -3,-119z"/>
   <path class="fil60" d="M18648 13347c1,12 4,23 7,35 23,96 98,151 90,256 -7,99 8,183 59,270 116,196 -44,153 -12,453 16,148 156,208 433,204 277,-4 581,-8 573,-216 -3,-81 -32,-140 -76,-207 -53,-81 -99,-148 -70,-247 12,-41 29,-82 32,-125 6,-104 -69,-138 -127,-206 -63,-73 -26,-196 -47,-284 -68,-285 -364,-319 -604,-241 -147,47 -281,140 -258,308z"/>
   <path class="fil61" d="M19830 15829c-9,228 163,527 189,754 54,455 -261,1307 -261,1362 0,55 294,794 409,1245 0,0 -64,92 -373,148 0,0 -473,-1030 -517,-1262 -44,-232 10,-2205 10,-2205l543 -42z"/>
   <path class="fil62" d="M19352 15866l-595 0c0,0 -137,539 -225,1269 -88,729 -60,945 -44,1061 16,116 418,1214 418,1214 0,0 205,28 414,-96 0,0 -135,-625 -251,-913 -116,-289 -129,-353 -129,-353 0,0 334,-713 418,-1222 83,-509 -6,-960 -6,-960z"/>
   <path class="fil56" d="M9251 13935c42,-187 -969,-520 -1409,-629 -440,-108 -807,-111 -858,117 -52,227 281,382 725,473 443,92 1500,225 1542,39z"/>
   <path class="fil56" d="M9070 14432c59,-182 -918,-606 -1346,-754 -429,-148 -794,-185 -866,37 -71,222 246,407 679,538 434,132 1474,361 1533,179z"/>
   <path class="fil56" d="M9015 16298l-8 170c0,24 19,44 43,44l457 0c42,0 59,-53 26,-78 -69,-51 -165,-111 -255,-127 -7,-2 -72,-1433 -141,-1434 -63,0 -122,1425 -122,1425z"/>
   <path class="fil56" d="M9127 16360c170,0 216,-1496 216,-1832 0,-337 -26,-691 -216,-691 -190,0 -216,354 -216,691 0,336 47,1832 216,1832z"/>
   <path class="fil63" d="M9007 16330l0 159c0,16 12,29 28,29l512 0c45,0 64,-57 28,-84 -74,-55 -193,-111 -282,-153 -20,18 -52,75 -89,82 -36,7 -197,-33 -197,-33z"/>
   <path class="fil56" d="M8621 16753c0,0 0,9 0,21l0 139c0,15 34,78 66,91 115,49 336,20 345,-20 8,-40 -53,-127 -103,-189l0 0c-32,-40 -58,-69 -58,-69 0,0 -63,-1389 -128,-1387 -71,2 -122,1414 -122,1414z"/>
   <path class="fil56" d="M8733 16816c169,16 324,-1471 354,-1806 31,-335 38,-691 -151,-708 -190,-17 -248,334 -279,669 -30,335 -92,1830 76,1845z"/>
   <path class="fil64" d="M8621 16774l0 139c0,15 34,78 66,91 115,49 336,20 345,-20 8,-40 -53,-127 -103,-189l0 0c-24,-21 -145,-9 -165,1 -21,10 -69,39 -79,37 -10,-2 -64,-59 -64,-59z"/>
   <path class="fil56" d="M9948 11975c-67,-101 -835,366 -1047,506 -211,139 -424,303 -349,417 76,114 309,-18 521,-158 211,-140 942,-663 875,-765z"/>
   <path class="fil56" d="M9788 12055c41,122 247,24 316,-11 112,-59 131,-234 109,-278 -22,-44 -201,128 -214,122 -14,-6 100,-89 75,-128 -25,-39 -190,52 -241,113 -52,61 -71,106 -45,182z"/>
   <path class="fil56" d="M8642 12975c131,-37 -13,-820 -99,-1148 -86,-328 -213,-570 -373,-525 -160,45 -141,318 -43,643 98,324 384,1067 515,1030z"/>
   <path class="fil65" d="M7830 11052l32 249 155 -74 47 -24c0,0 205,73 254,124 250,264 430,1181 443,1169 0,0 637,-397 699,-399 63,-2 143,-49 143,-49l71 -30 121 182 -92 77c0,0 -7,58 -90,130 -112,97 -675,660 -949,593 -275,-67 -499,-879 -499,-879l-217 -583 -517 -390 399 -96z"/>
   <path class="fil56" d="M6696 13718l1108 -182 312 -1590 148 -582 -486 -348 -357 -34c-203,-19 -390,112 -440,310 0,0 -248,1055 -276,1414 -44,556 -9,1012 -9,1012z"/>
   <path class="fil66" d="M7824 13284c0,0 767,193 1152,383 384,190 414,329 426,726 13,397 -76,1850 -76,1850 0,0 -94,78 -357,56 0,0 -140,-1498 -142,-1829 -3,-331 -1642,-558 -1642,-558 0,0 -224,-397 34,-528 257,-131 605,-100 605,-100z"/>
   <path class="fil35" d="M6720 13796c13,200 566,569 1115,674 549,105 714,118 723,139 8,21 0,2124 0,2124 0,0 175,106 353,-42 0,0 220,-1529 216,-1960 -4,-430 -121,-502 -265,-574 -144,-72 -1336,-695 -1336,-695l-806 334z"/>
   <path class="fil67" d="M8169 13584c0,0 94,16 229,41l-116 313 -963 -216 -1 0 851 -138z"/>
   <path class="fil0" d="M9385 13802l-1103 136 387 -1042c14,0 1079,-24 1079,-24l-363 930z"/>
   <polygon class="fil68" points="9385,13802 9381,13874 9196,13899 8484,13999 8278,14029 8282,13938 "/>
   <polygon class="fil47" points="8282,13938 8278,14029 7323,13791 7319,13722 "/>
   <polygon class="fil47" points="9748,12872 9702,12852 8639,12879 8249,13930 8282,13938 8669,12896 "/>
   <path class="fil56" d="M7727 10718l-113 311c0,0 68,154 261,210 105,30 142,-12 142,-12l42 -145 -332 -364z"/>
   <path class="fil69" d="M8290 10499c37,23 14,160 7,157 -7,-2 -1,-115 -32,-142 -30,-26 25,-15 25,-15z"/>
   <path class="fil69" d="M8438 10547c-30,21 -41,123 -43,132 -2,8 45,-115 45,-115l-2 -17z"/>
   <path class="fil70" d="M8121 10456l-5 15 168 48c2,0 11,-13 6,-20 -24,-37 -169,-43 -169,-43z"/>
   <path class="fil70" d="M8557 10582l-5 17 -117 -36c-1,-1 0,-17 6,-20 31,-21 116,39 116,39z"/>
   <path class="fil70" d="M8152 10578c-5,18 6,38 24,43 19,6 38,-5 44,-24 5,-18 -6,-38 -24,-43 -19,-5 -38,5 -44,24z"/>
   <path class="fil70" d="M8124 10540c20,-4 48,-7 76,1 27,8 49,25 64,40l-140 -41z"/>
   <path class="fil70" d="M8429 10658c-5,19 5,38 24,44 19,5 38,-6 43,-24 6,-19 -5,-38 -23,-44 -19,-5 -38,6 -44,24z"/>
   <path class="fil70" d="M8422 10627c15,-6 35,-11 54,-6 20,6 34,21 43,34l-97 -28z"/>
   <path class="fil71" d="M8314 10808c-34,-9 -60,-20 -63,-11 -2,9 22,28 55,38 34,10 64,7 67,-3 3,-9 -25,-14 -59,-24z"/>
   <path class="fil69" d="M8274 10946c-25,-7 -44,-15 -46,-8 -2,6 14,28 38,35 25,7 49,-3 51,-9 2,-7 -18,-11 -43,-18z"/>
   <path class="fil69" d="M8403 10924l6 8 -8 8c-3,0 -63,0 -119,-17 -56,-16 -110,-49 -112,-50l-2 -11 11 -3c0,1 53,33 107,49 54,16 114,16 115,16l2 0z"/>
   <path class="fil56" d="M7766 10413c-3,14 -6,28 -9,41l-5 14c-77,229 0,521 215,620l5 3 7 2c47,20 216,85 300,33 98,-60 208,-192 238,-295 30,-103 19,-133 31,-174 9,-33 56,-129 69,-173 62,-207 -18,-453 -266,-525 -371,-108 -523,201 -585,454z"/>
   <path class="fil69" d="M8103 11134c-114,-27 -232,-181 -259,-243 -27,-62 -11,-196 -11,-196 0,0 -35,-5 -50,-47 0,0 -14,57 3,82 16,26 29,34 30,49 1,15 -25,199 54,275 79,77 233,80 233,80z"/>
   <path class="fil72" d="M8565 10222c0,0 -107,52 -253,135 -145,84 -255,87 -255,87l-151 109 -70 -34 -109 199c0,0 -22,-161 -4,-337 18,-175 120,-480 323,-534 202,-53 597,215 638,286 42,72 105,188 -80,386 0,0 40,-104 25,-193 -15,-90 -64,-104 -64,-104z"/>
   <path class="fil56" d="M7874 10448c-27,-16 -90,-60 -107,47 -30,185 78,204 78,204 1,-27 2,-66 7,-109 33,-9 3,-42 8,-63l2 -13c3,-22 7,-43 12,-66z"/>
   <path class="fil69" d="M7862 10514c0,0 -24,-41 -52,-36 -28,6 -27,68 -18,108 10,39 31,49 37,40 7,-8 -31,-41 -11,-52 20,-12 37,-10 38,-20 2,-10 6,-40 6,-40z"/>
   <path class="fil73" d="M7963 10392c-21,46 -33,97 -47,146 -7,27 -12,56 -23,82 -5,13 -14,59 -31,62 -26,3 -4,-130 -3,-146 1,-10 3,-111 11,-113l93 -31z"/>
   <path class="fil74" d="M6683 13796c830,-93 1278,-486 1278,-486 0,0 91,-800 142,-1014 51,-214 229,-675 204,-835 -26,-160 -131,-215 -214,-244 0,0 3,-29 -57,-55l-21 72 -133 115 -42 -236 -11 -61 -30 44c-71,-27 -148,-75 -222,-99 -125,-43 -242,-55 -310,-57 -198,-5 -362,506 -512,1262 -151,755 -72,1594 -72,1594z"/>
   <polygon class="fil75" points="8099,11148 8015,11234 8017,11228 8046,11128 8068,11131 "/>
   <path class="fil76" d="M7830 11052l-101 145c-64,-91 -152,-200 -152,-200l94 -86 159 141z"/>
   <polygon class="fil77" points="8095,11204 8087,11301 8014,11236 8015,11234 8099,11148 "/>
   <path class="fil56" d="M6808 12651c132,40 434,-704 539,-1029 105,-325 129,-600 -32,-649 -160,-49 -292,194 -385,523 -93,328 -254,1115 -122,1155z"/>
   <path class="fil56" d="M8058 13551c78,-94 -588,-697 -782,-860 -194,-163 -411,-321 -499,-216 -88,105 105,291 299,454 194,163 904,715 982,622z"/>
   <path class="fil56" d="M7884 13397c-101,103 101,260 172,311 116,82 301,12 334,-32 33,-45 -230,-137 -231,-153 -1,-17 140,55 166,10 27,-45 -148,-163 -236,-184 -87,-20 -142,-17 -205,48z"/>
   <path class="fil78" d="M7343 10955c-103,-40 -257,-19 -376,295 -118,314 -284,1171 -284,1319 -1,148 574,648 727,755 152,107 214,118 248,123 34,6 172,71 172,71 0,0 126,-121 130,-209 0,0 -105,-98 -124,-132 -18,-34 -156,-215 -319,-348 -163,-133 -386,-347 -397,-364 -11,-17 301,-766 338,-958 37,-191 73,-478 -115,-552z"/>
   <path class="fil79" d="M13446 18523c0,0 22,65 45,147 24,82 48,179 53,248l-39 3c-4,-63 -28,-160 -51,-241 -12,-40 -23,-76 -31,-103 -8,-26 -14,-42 -14,-42l37 -12z"/>
   <path class="fil80" d="M13797 18555c0,0 -1,7 -2,19 -4,36 -11,120 -11,211 0,43 1,87 6,128l-39 4c-5,-43 -6,-88 -6,-132 0,-124 13,-234 13,-234l39 4z"/>
   <path class="fil81" d="M13991 18814l0 0c-2,2 -10,11 -17,25 -8,13 -14,30 -14,47l-39 0c0,-28 10,-52 20,-70 10,-17 20,-28 21,-28l29 26z"/>
   <path class="fil82" d="M13296 18665c-83,0 -163,-45 -231,-112 -122,-123 -135,-348 -233,-755 -22,-91 -57,-168 -97,-234 -17,-27 -35,-52 -53,-76 -133,-173 -292,-250 -271,-297 4,-11 25,-17 57,-17 125,0 426,88 679,314 26,24 52,49 77,76 59,63 114,134 161,215 30,51 55,100 77,147 -27,215 45,369 93,446 -12,128 -62,191 -62,191 -62,72 -130,102 -197,102zm-499 -1297c-6,0 -12,3 -16,8 -6,9 -5,21 4,27 387,284 605,1059 607,1067 3,8 11,14 19,14l6 -1c10,-3 16,-13 13,-24 -9,-32 -224,-796 -622,-1087 -3,-3 -7,-4 -11,-4z"/>
   <path class="fil83" d="M14172 18865c-146,0 -272,-70 -266,-251 0,0 2,-26 19,-66 60,-19 118,-54 170,-100 57,-50 104,-115 148,-200 58,-29 125,-56 204,-80 107,-33 212,-46 313,-46 386,0 692,199 675,248 -6,16 -31,20 -70,20 -15,0 -33,-1 -53,-1 -20,-1 -42,-2 -66,-2 -121,0 -286,16 -450,126 -308,206 -452,345 -605,351 -7,0 -13,1 -19,1zm798 -607c-285,0 -586,143 -896,423 -12,10 -23,21 -28,25 -5,2 -10,6 -12,12 -3,10 3,21 13,25l7 1c9,0 18,-8 46,-34 303,-274 596,-412 871,-412 18,0 35,0 53,1 0,0 1,0 1,0 10,0 19,-8 20,-18 0,-11 -8,-20 -19,-21 -18,-1 -37,-2 -56,-2z"/>
   <path class="fil84" d="M13835 18562c-59,0 -117,-19 -172,-63 -23,-19 -46,-43 -68,-73 0,0 -18,-19 -40,-54 -48,-77 -120,-231 -93,-446 12,-107 49,-228 124,-362 14,-25 29,-50 45,-76 6,-9 12,-18 19,-28 306,-454 895,-585 1168,-585 85,0 140,13 146,32 27,75 -279,209 -445,581l0 0c-17,39 -33,80 -46,124 -92,293 -157,494 -230,636 -44,85 -91,150 -148,200 -52,46 -110,81 -170,100 -30,9 -60,14 -90,14zm845 -1596c-2,0 -3,0 -5,0 -744,195 -862,1108 -880,1383 -1,7 -1,12 -1,14 -4,10 2,20 12,23l6 1c8,0 17,-6 20,-14 1,-4 1,-6 2,-22 18,-268 132,-1159 851,-1347 10,-3 17,-13 14,-24 -2,-9 -10,-14 -19,-14z"/>
   <path class="fil85" d="M13411 18484c-8,0 -16,-6 -19,-14 -2,-8 -220,-783 -607,-1067 -9,-6 -10,-18 -4,-27 4,-5 10,-8 16,-8 4,0 8,1 11,4 398,291 613,1055 622,1087 3,11 -3,21 -13,24l-6 1z"/>
   <path class="fil86" d="M13812 18387l-6 -1c-10,-3 -16,-13 -12,-23 0,-2 0,-7 1,-14 18,-275 136,-1188 880,-1383 2,0 3,0 5,0 9,0 17,5 19,14 3,11 -4,21 -14,24 -719,188 -833,1079 -851,1347 -1,16 -1,18 -2,22 -3,8 -12,14 -20,14z"/>
   <path class="fil87" d="M14054 18744l-7 -1c-10,-4 -16,-15 -13,-25 2,-6 7,-10 12,-12 5,-4 16,-15 28,-25 310,-280 611,-423 896,-423 19,0 38,1 56,2 11,1 19,10 19,21 -1,10 -10,18 -20,18 0,0 -1,0 -1,0 -18,-1 -35,-1 -53,-1 -275,0 -568,138 -871,412 -28,26 -37,34 -46,34z"/>
   <path class="fil88" d="M13252 20071l1011 0c25,0 47,-17 53,-42l249 -1076c8,-35 -18,-67 -53,-67l-1509 0c-35,0 -61,32 -53,67l249 1076c6,25 28,42 53,42z"/>
  </g>
 </g>
</svg>
