<?xml version="1.0" encoding="UTF-8"?>
<!DOCTYPE svg PUBLIC "-//W3C//DTD SVG 1.1//EN" "http://www.w3.org/Graphics/SVG/1.1/DTD/svg11.dtd">
<!-- Creator: CorelDRAW X7 -->
<svg xmlns="http://www.w3.org/2000/svg" xml:space="preserve" width="297mm" height="210mm" version="1.1" style="shape-rendering:geometricPrecision; text-rendering:geometricPrecision; image-rendering:optimizeQuality; fill-rule:evenodd; clip-rule:evenodd"
viewBox="0 0 29700 21000"
 xmlns:xlink="http://www.w3.org/1999/xlink">
 <defs>
  <style type="text/css">
   <![CDATA[
    .fil5 {fill:#FEFEFE;fill-rule:nonzero}
    .fil6 {fill:#F08E7D;fill-rule:nonzero}
    .fil14 {fill:#EA584F;fill-rule:nonzero}
    .fil2 {fill:#FDFCFC;fill-rule:nonzero}
    .fil3 {fill:#F9FAFA;fill-rule:nonzero}
    .fil16 {fill:#F7FAFD;fill-rule:nonzero}
    .fil4 {fill:#F7F7F7;fill-rule:nonzero}
    .fil12 {fill:#E7705F;fill-rule:nonzero}
    .fil19 {fill:#F4F8FC;fill-rule:nonzero}
    .fil17 {fill:#F3F7FC;fill-rule:nonzero}
    .fil28 {fill:#F3F4F2;fill-rule:nonzero}
    .fil0 {fill:#EEEFEE;fill-rule:nonzero}
    .fil20 {fill:#E9EEF6;fill-rule:nonzero}
    .fil10 {fill:#E8ECF1;fill-rule:nonzero}
    .fil1 {fill:#E8E8E9;fill-rule:nonzero}
    .fil18 {fill:#DFE3EB;fill-rule:nonzero}
    .fil13 {fill:#D6D7D5;fill-rule:nonzero}
    .fil15 {fill:#B2C8E7;fill-rule:nonzero}
    .fil21 {fill:#ACC2E5;fill-rule:nonzero}
    .fil25 {fill:#A1A19C;fill-rule:nonzero}
    .fil27 {fill:#95B3DD;fill-rule:nonzero}
    .fil29 {fill:#81A2D4;fill-rule:nonzero}
    .fil22 {fill:#779CD1;fill-rule:nonzero}
    .fil23 {fill:#527EBF;fill-rule:nonzero}
    .fil7 {fill:#4673B8;fill-rule:nonzero}
    .fil11 {fill:#2A3B41;fill-rule:nonzero}
    .fil8 {fill:#2F61AB;fill-rule:nonzero}
    .fil9 {fill:#0F4B9C;fill-rule:nonzero}
    .fil26 {fill:#202C47;fill-rule:nonzero}
    .fil24 {fill:#253A6A;fill-rule:nonzero}
   ]]>
  </style>
 </defs>
 <g id="Layer_x0020_1">
  <metadata id="CorelCorpID_0Corel-Layer"/>
  <g id="_2122380004080">
   <polygon class="fil0" points="1649,18314 28521,18314 28521,18300 1649,18300 "/>
   <polygon class="fil0" points="6578,19127 8358,19127 8358,19113 6578,19113 "/>
   <polygon class="fil0" points="4983,19127 6014,19127 6014,19113 4983,19113 "/>
   <polygon class="fil0" points="11934,19324 12965,19324 12965,19311 11934,19311 "/>
   <polygon class="fil0" points="16022,19625 18343,19625 18343,19611 16022,19611 "/>
   <polygon class="fil0" points="15203,19625 15543,19625 15543,19611 15203,19611 "/>
   <polygon class="fil0" points="20979,19324 26014,19324 26014,19311 20979,19311 "/>
   <path class="fil0" d="M4009 715c-162,0 -293,132 -293,293l0 14588c0,162 131,294 293,294l10378 0c162,0 294,-132 294,-294l0 -14588c0,-161 -132,-293 -294,-293l-10378 0zm10378 15188l-10378 0c-169,0 -307,-137 -307,-307l0 -14588c0,-169 138,-306 307,-306l10378 0c169,0 307,137 307,306l0 14588c0,170 -138,307 -307,307z"/>
   <path class="fil0" d="M15634 715c-162,0 -293,132 -293,293l0 14588c0,162 131,294 293,294l10378 0c162,0 294,-132 294,-294l0 -14588c0,-161 -132,-293 -294,-293l-10378 0zm10378 15188l-10378 0c-169,0 -307,-137 -307,-307l0 -14588c0,-169 138,-306 307,-306l10378 0c169,0 307,137 307,306l0 14588c0,170 -138,307 -307,307z"/>
   <polygon class="fil1" points="14839,18398 16020,18398 16020,13709 14839,13709 "/>
   <polygon class="fil2" points="15796,18398 16020,18398 16020,17759 15561,17759 "/>
   <polygon class="fil1" points="9660,18398 10842,18398 10842,13709 9660,13709 "/>
   <polygon class="fil2" points="10646,18006 16020,18006 16020,13709 10646,13709 "/>
   <path class="fil1" d="M15846 13900l-5026 0 0 1178 5026 0 0 -1178zm-21 20l0 1137 -4984 0 0 -1137 4984 0z"/>
   <polygon class="fil2" points="10870,18398 10646,18398 10646,17759 11106,17759 "/>
   <path class="fil0" d="M13214 14489c0,65 54,119 119,119 66,0 119,-54 119,-119 0,-66 -53,-119 -119,-119 -65,0 -119,53 -119,119z"/>
   <path class="fil1" d="M15846 15268l-5026 0 0 1179 5026 0 0 -1179zm-21 21l0 1137 -4984 0 0 -1137 4984 0z"/>
   <path class="fil0" d="M13214 15858c0,65 54,118 119,118 66,0 119,-53 119,-118 0,-66 -53,-119 -119,-119 -65,0 -119,53 -119,119z"/>
   <path class="fil1" d="M15846 16637l-5026 0 0 1178 5026 0 0 -1178zm-21 21l0 1137 -4984 0 0 -1137 4984 0z"/>
   <path class="fil0" d="M13214 17226c0,66 54,119 119,119 66,0 119,-53 119,-119 0,-65 -53,-119 -119,-119 -65,0 -119,54 -119,119z"/>
   <polygon class="fil1" points="8938,18398 10120,18398 10120,10986 8938,10986 "/>
   <polygon class="fil2" points="9895,18398 10120,18398 10120,17759 9660,17759 "/>
   <polygon class="fil1" points="4521,18398 5703,18398 5703,10986 4521,10986 "/>
   <polygon class="fil2" points="5507,18006 10120,18006 10120,10986 5507,10986 "/>
   <path class="fil1" d="M9946 11161l-4265 0 0 1638 4265 0 0 -1638zm-25 24l0 1589 -4215 0 0 -1589 4215 0z"/>
   <path class="fil1" d="M9946 12943l-2057 0 0 4265 2057 0 0 -4265zm-25 25l0 4215 -2008 0 0 -4215 2008 0z"/>
   <path class="fil1" d="M7738 12943l-2057 0 0 4265 2057 0 0 -4265zm-24 25l0 4215 -2008 0 0 -4215 2008 0z"/>
   <polygon class="fil2" points="5731,18398 5507,18398 5507,17759 5967,17759 "/>
   <path class="fil0" d="M7695 11980c0,65 53,119 118,119 66,0 119,-54 119,-119 0,-66 -53,-119 -119,-119 -65,0 -118,53 -118,119z"/>
   <path class="fil0" d="M8120 14975c0,65 53,119 119,119 66,0 119,-54 119,-119 0,-66 -53,-119 -119,-119 -66,0 -119,53 -119,119z"/>
   <path class="fil0" d="M7269 14975c0,65 53,119 119,119 66,0 119,-54 119,-119 0,-66 -53,-119 -119,-119 -66,0 -119,53 -119,119z"/>
   <path class="fil1" d="M7135 8920l-499 0c0,0 87,461 87,732 0,271 -379,1334 163,1334 542,0 162,-1063 162,-1334 0,-271 87,-732 87,-732z"/>
   <path class="fil3" d="M5239 10010l0 324c0,359 294,652 653,652l324 0c359,0 652,-293 652,-652l0 -324 -1629 0z"/>
   <path class="fil1" d="M12165 13026c0,376 421,683 935,683l465 0c514,0 935,-307 935,-683l-2335 0z"/>
   <path class="fil1" d="M24469 12476c-281,230 -670,651 -1026,1243 -237,394 -380,807 -443,1353 1,-618 3,-1282 5,-1908 72,-162 235,-533 353,-827 391,-980 536,-1221 888,-2066 469,-1127 950,-2465 812,-2358 -280,218 -1355,2231 -1471,2519 -400,991 -511,1713 -580,2411 2,-589 4,-1129 6,-1546 7,-1361 31,-1800 42,-1935 43,-69 95,-149 125,-192 252,-365 350,-676 587,-1221 338,-771 628,-2141 543,-2072 -353,287 -632,906 -998,1694 -367,788 -262,1242 -335,1915 -15,132 -27,630 -35,1321 -95,-736 -273,-1221 -598,-1662 -400,-542 -787,-908 -1071,-1099 -284,-192 490,1140 860,1721 330,518 634,975 805,1425 -9,936 -13,2122 -14,3225 -84,-502 -223,-1043 -408,-1462 -222,-503 -564,-1275 -837,-1536 -65,-63 285,1438 510,1837 224,399 389,775 531,1002 33,52 142,256 205,373 0,1347 7,2536 19,2941l58 0c-4,-104 -5,-790 -4,-1697 141,-493 461,-1055 726,-1567 289,-560 1027,-2062 745,-1832z"/>
   <polygon class="fil4" points="23816,18398 22131,18398 22004,16746 23943,16746 "/>
   <polygon class="fil3" points="24068,16939 21878,16939 21816,16382 24131,16382 "/>
   <polygon class="fil1" points="5315,5114 8327,5114 8327,1806 5315,1806 "/>
   <polygon class="fil3" points="5542,5114 8654,5114 8654,1806 5542,1806 "/>
   <polygon class="fil5" points="5803,4853 8393,4853 8393,2066 5803,2066 "/>
   <polygon class="fil3" points="6430,4178 7765,4178 7765,2742 6430,2742 "/>
   <polygon class="fil1" points="20889,5264 23687,5264 23687,2191 20889,2191 "/>
   <polygon class="fil3" points="21100,5264 23990,5264 23990,2191 21100,2191 "/>
   <polygon class="fil5" points="21342,5022 23748,5022 23748,2434 21342,2434 "/>
   <path class="fil3" d="M23296 3728c0,415 -336,751 -751,751 -415,0 -751,-336 -751,-751 0,-415 336,-751 751,-751 415,0 751,336 751,751z"/>
   <polygon class="fil1" points="9222,6232 11457,6232 11457,3778 9222,3778 "/>
   <polygon class="fil3" points="9391,6232 11699,6232 11699,3778 9391,3778 "/>
   <polygon class="fil5" points="9584,6039 11506,6039 11506,3972 9584,3972 "/>
   <polygon class="fil3" points="10545,4483 10019,5393 11070,5393 "/>
   <path class="fil3" d="M25506 20119c0,336 -4666,608 -10421,608 -5755,0 -10420,-272 -10420,-608 0,-336 4665,-609 10420,-609 5755,0 10421,273 10421,609z"/>
   <path class="fil6" d="M20419 6532l-533 -216c0,0 -703,1283 -905,1347 -274,89 -841,334 -1178,380 -46,53 -120,220 -113,281 452,151 1445,-49 1658,-207 484,-360 1071,-1585 1071,-1585z"/>
   <path class="fil7" d="M20583 6241c100,367 -439,1106 -439,1106l-707 -397c0,0 132,-304 293,-613 261,-499 740,-516 853,-96z"/>
   <path class="fil8" d="M19840 7176l-403 -226c0,0 132,-304 293,-613 106,-204 250,-327 389,-373 -1,1 -84,188 -167,551 -112,166 -193,435 -233,593l121 68c0,0 0,0 0,0zm279 -1212c20,-7 40,-12 59,-15 -36,9 -57,14 -59,15z"/>
   <path class="fil9" d="M19840 7176l-121 -68c40,-158 121,-427 233,-593 -41,179 -81,399 -112,661z"/>
   <path class="fil7" d="M20119 5964c0,0 -549,1222 -229,3497 652,0 1847,0 2164,0 35,-332 -79,-1953 333,-3518 0,0 -366,-75 -719,-92 -276,-13 -675,-22 -920,1 -322,29 -629,112 -629,112z"/>
   <path class="fil8" d="M22054 9461c-317,0 -1512,0 -2164,0 -15,-108 -28,-213 -40,-316l1610 -523c251,-75 470,-233 619,-449 4,-98 9,-199 16,-303 -50,785 -21,1401 -41,1591zm-2233 -615c-22,-273 -31,-527 -31,-762 0,-1387 329,-2120 329,-2120 0,0 307,-83 629,-112 108,-10 246,-14 390,-14 183,0 376,6 530,13 315,16 640,76 707,90 -22,-4 -43,-6 -65,-6 -171,0 -351,119 -469,374 -214,464 -326,810 -326,810l0 0 143 58c-139,288 -283,547 -364,584 -263,119 -931,534 -1214,734 -9,37 -9,108 -1,173l-258 178 0 0z"/>
   <path class="fil10" d="M21450 20272c-1016,0 -1836,-47 -1833,-105 4,-57 830,-104 1845,-104 1016,0 1836,47 1833,104 -3,58 -829,105 -1845,105z"/>
   <polygon class="fil6" points="21444,19574 21059,19722 20728,18865 21114,18717 "/>
   <polygon class="fil6" points="22774,19754 22369,19754 22220,18817 22625,18817 "/>
   <path class="fil11" d="M22343 19707l454 0c17,0 31,12 33,28l59 360c6,37 -25,72 -63,72 -159,-3 -235,-12 -435,-12 -123,0 -377,12 -547,12 -166,0 -183,-168 -112,-183 316,-68 439,-162 544,-252 19,-16 43,-25 67,-25z"/>
   <path class="fil11" d="M20996 19566l431 -126c16,-4 33,3 40,17l159 322c17,34 -3,76 -40,86 -156,43 -261,69 -457,126 -135,39 -272,103 -405,146 -93,29 -310,30 -422,30 -166,0 -203,-175 -132,-183 180,-20 204,-11 304,-60 164,-83 291,-151 434,-300 25,-26 54,-48 88,-58z"/>
   <path class="fil6" d="M17871 8039l-445 -188 -184 494c0,0 257,46 551,0l78 -306z"/>
   <polygon class="fil6" points="17095,7839 17083,8167 17242,8345 17426,7851 "/>
   <polygon class="fil12" points="20729,18866 20899,19307 21284,19159 21114,18717 "/>
   <polygon class="fil12" points="22625,18817 22220,18817 22297,19300 22702,19300 "/>
   <path class="fil13" d="M19850 9145c-11,-103 -21,-202 -29,-299l0 0c8,97 18,197 29,299l0 0zm2245 -1275c6,-92 12,-187 21,-284 0,0 0,0 0,0 -4,46 -8,91 -11,135 -4,51 -7,100 -10,149z"/>
   <path class="fil9" d="M19850 9145c-11,-102 -21,-202 -29,-299l258 -178c6,52 17,99 33,121 482,-88 1410,-444 1603,-626 138,-129 276,-343 401,-577 -9,97 -15,192 -21,284 -7,104 -12,205 -16,303 -149,216 -368,374 -619,449l-1610 523z"/>
   <path class="fil5" d="M20347 7083l-55 -6c32,-269 232,-481 444,-476l-2 56c-182,-6 -358,186 -387,426z"/>
   <path class="fil5" d="M20633 7579l-9 0 2 -55c185,7 358,-186 387,-426l55 6c-32,264 -226,475 -435,475z"/>
   <path class="fil6" d="M21638 4816c-76,296 -165,838 30,1035 0,0 -136,301 -686,301 -503,0 -234,-300 -234,-300 335,-79 341,-324 297,-554l593 -482z"/>
   <path class="fil12" d="M21396 5012l-351 286c11,54 18,109 19,163 102,102 308,-157 329,-289 11,-66 12,-129 3,-160z"/>
   <path class="fil12" d="M20442 4812c51,92 142,149 228,168 129,29 194,-90 158,-209 -32,-108 -138,-252 -267,-227 -128,24 -178,162 -119,268z"/>
   <path class="fil11" d="M20655 3864c-201,92 -272,891 -19,1009 252,118 399,-1183 19,-1009z"/>
   <path class="fil6" d="M21699 4370c-48,401 -56,637 -270,842 -323,310 -807,126 -879,-274 -65,-360 24,-955 426,-1114 396,-158 771,145 723,546z"/>
   <path class="fil11" d="M21039 4072c297,-76 516,-128 438,120 -104,331 -229,651 -62,666 102,9 554,-182 496,-376 -50,-169 160,-214 199,-300 139,-310 -259,-270 -188,-457 69,-183 -321,-492 -537,-341 -349,244 -950,241 -634,-160 226,-286 -178,-227 -178,-227 0,0 244,144 -166,368 -435,237 -37,878 632,707z"/>
   <path class="fil6" d="M21854 4812c-62,92 -160,149 -248,168 -132,29 -183,-90 -133,-209 44,-108 167,-252 294,-227 125,24 158,162 87,268z"/>
   <path class="fil7" d="M19890 9461c0,0 -363,3252 -392,4486 -29,1283 1232,5288 1232,5288l645 -271c0,0 -751,-3659 -647,-4919 114,-1375 585,-4584 585,-4584l-1423 0z"/>
   <path class="fil8" d="M20855 12847c-148,-667 -331,-1768 -104,-2393 50,516 115,1163 182,1771 -27,211 -53,420 -78,622z"/>
   <polygon class="fil7" points="21346,18753 21423,18959 20679,19271 20561,19053 "/>
   <path class="fil7" d="M20658 9461c0,0 278,3093 462,4251 202,1269 994,5495 994,5495l741 0c0,0 -444,-4124 -528,-5380 -91,-1363 -273,-4366 -273,-4366l-1396 0z"/>
   <polygon class="fil7" points="22866,19014 22891,19221 22077,19221 22018,18983 "/>
   <path class="fil8" d="M22583 18769l-7 -6c-4,-38 -405,-3761 -480,-4889 -82,-1225 -246,-3940 -248,-3967l6 -8 1 0 7 7c1,27 166,2742 248,3967 75,1128 475,4851 479,4888l-6 8 0 0z"/>
   <path class="fil11" d="M21084 4482c-1,33 -20,59 -42,59 -21,0 -37,-26 -35,-59 2,-33 21,-59 42,-59 22,0 37,26 35,59z"/>
   <path class="fil11" d="M20716 4482c-2,33 -21,59 -42,59 -22,0 -38,-26 -36,-59 2,-33 21,-59 42,-59 22,0 38,26 36,59z"/>
   <path class="fil14" d="M20832 4498c0,0 -85,189 -172,279 54,54 154,30 154,30l18 -309z"/>
   <path class="fil11" d="M20841 4944c-5,0 -9,-5 -9,-10 1,-5 5,-10 10,-10 144,0 216,-100 217,-101l14 -2 2 13c-4,4 -80,110 -234,110z"/>
   <path class="fil11" d="M21150 4383c-5,2 -12,2 -17,-2 -70,-44 -136,-14 -137,-14 -9,5 -21,1 -25,-9 -4,-9 1,-21 11,-26 3,-1 86,-39 173,17 9,5 11,17 5,26l-10 8z"/>
   <path class="fil11" d="M20573 4276l-7 -5c-8,-7 -8,-19 0,-27 75,-79 162,-67 165,-66 10,1 17,11 15,22 -2,10 -12,17 -23,16 -2,-1 -70,-9 -130,54 -6,6 -13,7 -20,6z"/>
   <path class="fil6" d="M22595 6472l-559 -149c0,0 -548,1349 -742,1438 -263,119 -931,534 -1214,734 -16,67 -4,245 32,294 482,-88 1410,-444 1603,-626 441,-413 880,-1691 880,-1691z"/>
   <path class="fil7" d="M22150 19694c-5,0 -10,1 -13,3 -3,1 -6,4 -7,11 -1,15 2,27 11,35 21,18 74,21 144,7 -45,-26 -104,-56 -135,-56zm55 84c-31,0 -59,-5 -77,-21 -14,-12 -19,-29 -17,-50 2,-16 11,-24 18,-27 46,-23 172,57 187,66l3 10 -7 8c-29,6 -70,14 -107,14z"/>
   <path class="fil7" d="M22237 19600l-4 0c-13,2 -14,7 -15,10 -6,26 41,93 81,125 -3,-34 -11,-102 -40,-127 -7,-5 -14,-8 -22,-8zm72 164l-4 -1c-41,-23 -116,-112 -105,-157 2,-8 9,-22 32,-25 15,-2 28,2 40,12 45,39 47,156 48,160l-5 9 -6 2z"/>
   <path class="fil7" d="M20690 19647c-7,2 -13,5 -17,8 -3,3 -4,6 -4,11 2,13 7,22 17,28 29,15 95,3 180,-33 -60,-12 -138,-23 -176,-14zm88 64c-40,10 -78,13 -102,0 -15,-9 -24,-23 -26,-42 -1,-11 3,-21 11,-28 44,-39 219,3 239,8l6 8 -6 10c-32,15 -78,34 -122,44z"/>
   <path class="fil7" d="M20772 19532l-6 1c-17,6 -17,13 -17,15 1,28 78,79 133,96 -11,-29 -37,-89 -75,-108 -12,-6 -23,-7 -35,-4zm127 135l-4 1c-52,-10 -164,-72 -165,-118 0,-11 5,-26 31,-35 18,-7 37,-5 55,4 58,28 89,132 90,136l-2 9 -5 3z"/>
   <path class="fil6" d="M20125 8463l-560 258 -65 159 207 139c0,0 387,-42 497,-291l-79 -265z"/>
   <path class="fil11" d="M20149 8798c-35,-208 -103,-303 -104,-304l88 -66c4,4 85,114 125,352l-109 18z"/>
   <path class="fil11" d="M20245 8540c18,45 -11,99 -66,121 -54,22 -112,3 -131,-42 -18,-45 11,-99 66,-121 54,-22 113,-3 131,42z"/>
   <polygon class="fil6" points="19186,8930 19261,9005 19764,8790 19565,8721 "/>
   <polygon class="fil8" points="20679,19271 20561,19053 21346,18753 21423,18959 21237,19037 20856,19197 20856,19197 "/>
   <polygon class="fil8" points="22891,19221 22077,19221 22018,18983 22866,19014 "/>
   <path class="fil7" d="M22741 6317c148,477 -428,1128 -428,1128l-798 -326c0,0 112,-346 326,-810 244,-527 751,-473 900,8z"/>
   <path class="fil8" d="M22313 7445l-104 -43 -551 -225 -143 -58c0,0 112,-346 326,-810 118,-255 298,-374 469,-374 182,0 354,134 431,382 17,55 24,111 24,169 0,448 -452,959 -452,959z"/>
   <polygon class="fil7" points="14467,1596 14810,1596 14810,1541 14467,1541 "/>
   <polygon class="fil7" points="19270,4657 19215,4654 19256,3732 19311,3734 "/>
   <polygon class="fil7" points="19149,1789 12807,1789 12217,14996 18559,14996 "/>
   <path class="fil5" d="M18369 15177l-181 0 8 -181 181 0 -8 181zm-5578 -13025l-181 0 8 -181 181 0 -8 181z"/>
   <polygon class="fil15" points="18377,14996 18196,14996 18770,2152 12791,2152 12799,1971 18960,1971 "/>
   <polygon class="fil16" points="18180,15358 16020,15358 16020,15177 18188,15177 "/>
   <path class="fil17" d="M16020 15358l-174 0 0 -90 -3916 0c27,-64 51,-128 73,-190l29 0 -4 99 3992 0 0 181zm-195 0l-3934 0c10,-23 20,-46 30,-69l3904 0 0 69zm-3792 -301l-23 0c9,-28 18,-56 27,-84l-4 84z"/>
   <path class="fil18" d="M12032 15078l-29 0c2,-7 5,-14 7,-21l23 0 -1 21z"/>
   <path class="fil18" d="M15846 15358l-21 0 0 -69 -3904 0c3,-7 6,-14 9,-21l3916 0 0 90z"/>
   <path class="fil16" d="M12093 13709l-157 0c-7,-20 -14,-40 -21,-60l514 -11497 181 0 -517 11557z"/>
   <path class="fil17" d="M12071 14195c-17,-89 -39,-181 -67,-275l80 0 -13 275zm14 -295l-87 0c-18,-63 -39,-127 -62,-191l157 0 -8 191z"/>
   <path class="fil18" d="M12084 13920l-80 0c-2,-6 -4,-13 -6,-20l87 0 -1 20z"/>
   <path class="fil19" d="M18188 15177l-2168 0 0 -181 2176 0 -8 181zm-5914 -1468l-181 0 517 -11557 181 0 -486 10874 -140 0c0,123 46,239 125,340l-16 343z"/>
   <path class="fil17" d="M16020 15177l-3992 0 4 -99 3814 0 0 -82 174 0 0 181zm-195 -120l-3792 0 4 -84c46,-156 72,-302 72,-435 0,-11 0,-22 0,-33 -4,-99 -17,-203 -38,-310l13 -275 181 0 -48 1076 3608 0 0 61zm-3559 -1157l-181 0 8 -191 181 0 -8 191z"/>
   <path class="fil20" d="M15846 15078l-3814 0 1 -21 3792 0 0 -61 21 0 0 82zm-3581 -1158l-181 0 1 -20 181 0 -1 20z"/>
   <path class="fil20" d="M12290 13366c-79,-101 -125,-217 -125,-340l140 0 -15 340z"/>
   <path class="fil21" d="M18196 14996l-5979 0 48 -1076 1 -20 8 -191 16 -343 15 -340 486 -10874 5979 0 -574 12844zm-4902 -1982l-54 1211 3640 0 54 -1211 -3640 0zm1044 -7557l0 0c235,344 630,568 1088,568 458,0 874,-224 1139,-568l0 0c176,-227 286,-506 299,-809 35,-761 -554,-1377 -1315,-1377 -760,0 -1404,616 -1438,1377 -13,303 72,582 227,809l0 0z"/>
   <polygon class="fil5" points="18049,7912 12635,7912 12590,8922 18003,8922 "/>
   <polygon class="fil7" points="15613,7175 12668,7175 12648,7627 15593,7627 "/>
   <polygon class="fil5" points="17927,10639 12514,10639 12468,11650 17881,11650 "/>
   <polygon class="fil22" points="16880,14225 13240,14225 13294,13014 16934,13014 "/>
   <path class="fil5" d="M13057 14400l3627 0 54 -1199 -3627 0 -54 1199zm3634 13l-3641 0 -4 -2 -2 -5 54 -1211 7 -7 3640 0 4 2 2 5 -54 1212 -6 6z"/>
   <polygon class="fil7" points="14977,9902 12547,9902 12526,10354 14956,10354 "/>
   <path class="fil5" d="M16864 4648c-13,303 -123,582 -299,809 -265,344 -681,568 -1139,568 -458,0 -853,-224 -1088,-568 -155,-227 -240,-506 -227,-809 34,-761 678,-1377 1438,-1377 761,0 1350,616 1315,1377z"/>
   <path class="fil7" d="M16994 3559c-4,81 -33,155 -79,215 -71,92 -182,151 -303,151 -122,0 -227,-59 -289,-151 -42,-60 -64,-134 -61,-215 9,-202 181,-366 383,-366 202,0 358,164 349,366z"/>
   <path class="fil11" d="M13218 8417c-4,89 -79,162 -169,162 -89,0 -158,-73 -154,-162 4,-89 79,-162 169,-162 89,0 158,73 154,162z"/>
   <path class="fil11" d="M13943 8417c-4,89 -79,162 -169,162 -89,0 -159,-73 -155,-162 4,-89 80,-162 170,-162 89,0 158,73 154,162z"/>
   <path class="fil11" d="M14668 8417c-4,89 -80,162 -169,162 -89,0 -159,-73 -155,-162 4,-89 80,-162 169,-162 90,0 159,73 155,162z"/>
   <path class="fil11" d="M13097 11144c-4,90 -80,162 -170,162 -89,0 -158,-72 -154,-162 4,-89 79,-162 169,-162 89,0 159,73 155,162z"/>
   <path class="fil11" d="M13821 11144c-4,90 -79,162 -169,162 -89,0 -158,-72 -155,-162 5,-89 80,-162 170,-162 89,0 158,73 154,162z"/>
   <path class="fil11" d="M14546 11144c-4,90 -79,162 -169,162 -89,0 -159,-72 -155,-162 4,-89 80,-162 170,-162 89,0 158,73 154,162z"/>
   <path class="fil11" d="M15271 11144c-4,90 -80,162 -169,162 -90,0 -159,-72 -155,-162 4,-89 80,-162 169,-162 90,0 159,73 155,162z"/>
   <path class="fil11" d="M15996 11144c-4,90 -80,162 -169,162 -90,0 -159,-72 -155,-162 4,-89 80,-162 169,-162 90,0 159,73 155,162z"/>
   <path class="fil7" d="M16065 4188c-13,307 -274,557 -581,557 -308,0 -546,-250 -532,-557 13,-308 274,-557 581,-557 308,0 546,249 532,557z"/>
   <path class="fil7" d="M16565 5457c-265,344 -681,568 -1139,568 -458,0 -853,-224 -1088,-568 261,-260 675,-429 1133,-429 458,0 856,169 1094,429z"/>
   <path class="fil23" d="M15484 4745c-300,0 -533,-236 -533,-532 0,-9 0,-17 1,-25 13,-308 274,-557 581,-557 300,0 533,236 533,532 0,8 0,16 -1,25 -13,307 -274,557 -581,557z"/>
   <path class="fil23" d="M15426 6025c-458,0 -853,-224 -1088,-568 261,-260 675,-429 1133,-429 458,0 856,169 1094,429 -265,344 -681,568 -1139,568z"/>
   <path class="fil6" d="M8658 9166c-51,112 -105,234 -152,354 -47,121 -94,242 -136,365 -80,245 -155,493 -192,742l-12 79c-1,9 0,23 4,40 8,34 29,80 59,124 60,91 146,183 239,268 92,87 192,169 296,248 104,79 212,157 319,230l-100 188c-256,-111 -494,-245 -725,-413 -113,-86 -225,-179 -325,-305 -48,-63 -96,-135 -128,-230 -15,-47 -26,-100 -26,-158 0,-13 1,-32 2,-41l3 -26 5 -54c29,-285 92,-558 176,-824 41,-133 86,-264 137,-393 52,-130 104,-254 169,-385l387 191z"/>
   <path class="fil6" d="M9007 11584l380 -193 -98 418c0,0 -261,72 -382,-54l100 -171z"/>
   <polygon class="fil6" points="9735,11460 9634,11805 9289,11809 9387,11391 "/>
   <path class="fil14" d="M10271 7154c0,0 33,121 86,212 -45,42 -86,27 -86,27l0 -239z"/>
   <path class="fil11" d="M10220 7095c0,34 18,62 40,62 22,0 40,-28 40,-62 0,-34 -18,-61 -40,-61 -22,0 -40,27 -40,61z"/>
   <path class="fil11" d="M10250 7036l82 -24c0,0 -42,64 -82,24z"/>
   <path class="fil6" d="M9222 7548c49,250 98,708 -78,875 0,0 69,254 534,254 511,0 244,-254 244,-254 -279,-66 -272,-273 -223,-468l-477 -407z"/>
   <path class="fil6" d="M9086 6978c26,418 27,595 238,810 318,322 825,199 925,-217 90,-376 33,-996 -376,-1162 -403,-164 -813,152 -787,569z"/>
   <path class="fil11" d="M9127 6506c-209,76 -489,19 -379,666 116,684 -63,910 -63,910 0,0 795,169 1607,-11 0,0 -248,-433 -179,-749 89,-403 19,-552 19,-552 0,0 -710,-372 -1005,-264z"/>
   <path class="fil6" d="M10014 7196c-1,83 28,166 66,224 56,87 123,52 140,-39 15,-81 4,-224 -68,-280 -72,-55 -137,1 -138,95z"/>
   <path class="fil11" d="M8945 6579c-60,-169 227,-429 834,-321 607,108 634,613 634,613l-123 -146 6 154 -624 120 -727 -420z"/>
   <path class="fil7" d="M8997 8452c-9,-52 26,-100 78,-109 189,-31 618,-94 835,-64 160,22 203,116 210,192 5,57 -42,105 -99,103l-935 -43c-45,-2 -82,-35 -89,-79z"/>
   <path class="fil24" d="M10116 8445c-64,-8 -130,-16 -194,-22 -112,-10 -220,-14 -331,-14 -140,0 -285,7 -447,14 -50,3 -100,6 -149,11 2,-45 34,-83 80,-91 154,-25 469,-72 697,-72 51,0 98,2 138,8 142,19 192,96 206,166z"/>
   <polygon class="fil6" points="9537,17841 9883,18082 10463,17296 10117,17055 "/>
   <polygon class="fil6" points="8728,17825 9094,18034 9608,17203 9241,16994 "/>
   <polygon class="fil12" points="10463,17296 10164,17701 9817,17461 10116,17055 "/>
   <polygon class="fil12" points="9241,16994 9608,17203 9343,17631 8976,17423 "/>
   <path class="fil7" d="M9829 11076c0,0 1353,1706 1099,3337 -205,1317 -1392,3101 -1392,3101l-559 -277c0,0 607,-1186 1005,-2443 167,-527 96,-1107 -216,-1563 -686,-1002 -1784,-406 -1045,-2155l1108 0z"/>
   <path class="fil24" d="M9536 17514l-92 -46 -356 -176 0 -280c194,-403 601,-1291 894,-2218 59,-184 88,-375 88,-564 0,-213 -36,-424 -110,-623 120,-31 209,-140 209,-269l0 -568c0,-33 -6,-64 -16,-94 115,160 227,324 333,488 112,693 242,1497 298,1841 25,-77 47,-154 68,-230 -4,13 -8,27 -11,40 -7,25 -14,49 -21,74 -49,168 -108,339 -174,509 -206,529 -477,1049 -700,1441 -9,15 -17,29 -25,43 -65,113 -125,214 -177,301 -5,8 -10,17 -15,25 -117,192 -193,306 -193,306zm524 -4965c-47,-36 -106,-58 -170,-58l-1093 0c-191,-114 -322,-246 -322,-520 0,-190 63,-449 214,-818l229 0c178,198 667,753 1142,1396z"/>
   <path class="fil25" d="M10852 14775c32,-123 58,-245 76,-362 21,-130 31,-260 32,-390 0,0 0,0 0,0 -1,130 -11,260 -32,390 -18,117 -44,239 -76,362z"/>
   <path class="fil26" d="M10784 15005c-56,-344 -186,-1148 -298,-1841 189,293 356,586 474,859 -1,130 -11,260 -32,390 -18,117 -44,239 -76,362 -21,76 -43,153 -68,230z"/>
   <path class="fil7" d="M10433 11076c0,0 1630,2144 1676,3429 38,1077 -1775,3157 -1775,3157l-527 -340c0,0 1061,-1479 1328,-2688 -102,-1197 -2287,-3558 -2287,-3558l1585 0z"/>
   <path class="fil24" d="M10334 17662l-96 -62 -354 -229 -77 -49c0,0 1061,-1479 1328,-2688l0 0c-16,-181 -79,-389 -175,-611 -118,-273 -285,-566 -474,-859 -106,-164 -218,-328 -333,-488 -19,-50 -51,-95 -93,-127 -475,-643 -964,-1198 -1142,-1396l1524 0c15,0 28,-7 29,-17l1 -8c246,333 1595,2209 1637,3377 0,11 0,22 0,33 0,133 -26,279 -72,435 -9,28 -18,56 -27,84 -2,7 -5,14 -7,21 -22,62 -46,126 -73,190 -3,7 -6,14 -9,21 -10,23 -20,46 -30,69 -158,353 -383,727 -614,1068 -4,7 -9,14 -14,21 -44,64 -88,128 -132,190 -5,7 -9,14 -14,21 -95,134 -189,260 -276,375 -7,9 -14,18 -21,27 -62,81 -120,156 -174,223 -186,234 -312,379 -312,379z"/>
   <path class="fil7" d="M8417 8519c-174,41 -341,675 -341,675l681 454c0,0 226,-500 147,-720 -82,-228 -266,-461 -487,-409z"/>
   <polygon class="fil13" points="8635,9567 8612,9552 8635,9567 "/>
   <path class="fil8" d="M8635 9567l-23 -15 -109 -73 36 -414c38,187 70,352 96,502z"/>
   <path class="fil7" d="M10635 8531c0,0 201,71 -202,2545 -679,0 -1382,0 -1712,0 29,-697 29,-1126 -304,-2557 0,0 359,-78 727,-96 289,-13 525,-23 778,0 334,31 713,108 713,108z"/>
   <path class="fil6" d="M10809 8924c39,108 80,223 122,335 41,113 84,226 128,338l132 338 33 84 17 42 8 21 1 3c-3,-1 -5,-11 -38,-33 -16,-10 -44,-20 -70,-21 -27,-1 -48,6 -60,11 -24,12 -25,17 -24,16 2,-1 7,-6 12,-12 24,-29 52,-77 77,-126 25,-49 49,-102 73,-155 48,-107 91,-219 135,-331 44,-112 85,-226 125,-340l123 -343 207 52c-41,245 -94,486 -157,727 -31,121 -67,240 -108,361 -20,61 -43,121 -69,183 -27,62 -54,123 -102,194 -13,18 -27,37 -47,58 -21,21 -45,46 -98,69 -26,12 -62,22 -104,20 -42,-1 -84,-16 -114,-34 -59,-38 -80,-75 -97,-102 -9,-13 -16,-27 -20,-38l-11 -20 -20 -42 -41 -84c-53,-111 -105,-224 -154,-338 -49,-114 -96,-228 -142,-344 -45,-117 -88,-230 -127,-355l410 -134z"/>
   <path class="fil7" d="M10635 8531c206,49 437,658 437,658l-612 521c0,0 -396,-663 -316,-882 83,-228 222,-361 491,-297z"/>
   <path class="fil6" d="M11698 8561l215 -179 149 232 -110 194c0,0 -175,161 -330,79 -50,-113 -19,-246 76,-326z"/>
   <polygon class="fil6" points="12302,8382 12286,8441 11946,8498 11913,8382 "/>
   <polygon class="fil7" points="10377,17690 9764,17293 9874,17102 10563,17526 "/>
   <path class="fil11" d="M9213 17947c67,34 120,47 146,34 11,-5 17,-16 20,-31 1,-9 -2,-12 -5,-15 -22,-18 -102,-4 -161,12zm121 59c-49,0 -113,-31 -152,-53l-5 -9 7 -9c16,-5 162,-50 203,-15 6,5 14,16 11,32 -3,23 -13,38 -30,47 -10,5 -22,7 -34,7z"/>
   <path class="fil11" d="M9291 17808c-5,0 -10,1 -15,4 -33,16 -61,79 -74,117 47,-20 112,-73 114,-102 1,-5 0,-11 -12,-16l-13 -3zm-104 147l-8 -3 -2 -10c1,-5 35,-122 90,-148 15,-7 30,-8 44,-2 24,10 26,27 25,36 -4,49 -102,115 -147,126l-2 1z"/>
   <path class="fil11" d="M9946 18120c68,66 127,102 161,98 12,-2 21,-8 28,-20l0 -12c-14,-29 -114,-54 -189,-66zm155 118c-60,0 -144,-78 -191,-125l-1 -12 10 -5c21,3 208,28 234,81 5,10 5,21 -1,31 -10,17 -24,27 -42,30l-9 0z"/>
   <path class="fil11" d="M9938 18098c60,3 156,-17 168,-43 1,-2 5,-9 -9,-20 -12,-10 -25,-15 -41,-13 -45,4 -95,52 -118,76zm14 20c-14,0 -27,-1 -36,-2l-8 -7 2 -10c3,-3 76,-91 144,-97 22,-2 40,4 56,17 21,18 19,35 14,45 -17,36 -110,54 -172,54z"/>
   <path class="fil7" d="M9201 17898l-455 -129c-17,-4 -34,3 -41,19l-154 346c-16,36 7,80 45,90 160,43 239,55 439,112 124,34 300,98 471,146 166,47 227,-117 160,-153 -299,-158 -322,-267 -404,-387 -15,-21 -36,-37 -61,-44z"/>
   <path class="fil7" d="M9923 18050l-389 -270c-15,-10 -33,-8 -44,4l-259 277c-26,29 -20,78 13,101 138,91 208,129 380,248 105,73 315,235 460,336 143,98 253,-38 202,-93 -231,-247 -282,-401 -320,-542 -7,-25 -23,-47 -43,-61z"/>
   <polygon class="fil7" points="9607,17550 8906,17201 8978,17011 9727,17378 "/>
   <path class="fil7" d="M8695 10976l-59 153c-6,12 8,24 28,24l1778 0c15,0 28,-7 29,-17l15 -153c2,-11 -12,-20 -29,-20l-1734 0c-13,0 -24,5 -28,13z"/>
   <path class="fil27" d="M10442 11153l-1778 0c-17,0 -30,-8 -30,-18 0,-2 1,-4 2,-6l59 -153c4,-8 15,-13 28,-13l1734 0c16,0 29,8 30,18 0,1 -1,1 -1,2l-15 153c-1,10 -14,17 -29,17z"/>
   <path class="fil7" d="M8975 11170l-47 0c-9,0 -16,-5 -15,-11l22 -199c0,-6 8,-11 18,-11l46 0c9,0 16,5 16,11l-22 199c-1,6 -9,11 -18,11z"/>
   <path class="fil7" d="M10072 11170l-47 0c-9,0 -16,-5 -15,-11l21 -199c1,-6 9,-11 18,-11l47 0c9,0 16,5 15,11l-21 199c-1,6 -9,11 -18,11z"/>
   <path class="fil28" d="M8931 20272c-1,0 -1,0 -2,0 -795,0 -1438,-47 -1435,-105 2,-31 199,-60 510,-79 -2,39 25,79 75,79l1711 0c50,0 77,-40 76,-79 312,19 509,47 508,80 -3,57 -649,104 -1443,104z"/>
   <path class="fil1" d="M9811 20020c-254,-74 -535,-169 -708,-271 -5,-2 -10,-4 -15,-7l0 -1152 512 0c85,0 154,-68 154,-153 0,-85 -69,-153 -154,-153l-512 0 0 -5258 -307 0 0 5258 -512 0c-85,0 -154,68 -154,153 0,85 69,153 154,153l512 0 0 1152c-5,3 -10,5 -15,7 -173,102 -454,197 -708,271 -84,24 -66,147 21,147l1711 0c87,0 105,-123 21,-147z"/>
   <path class="fil7" d="M9890 13616l-1911 0c-153,0 -279,-125 -279,-278l0 -568c0,-154 126,-279 279,-279l1911 0c153,0 279,125 279,279l0 568c0,153 -126,278 -279,278z"/>
   <path class="fil7" d="M7961 13616l0 98c0,81 88,147 195,147l1557 0c107,0 195,-66 195,-147l0 -98 -1947 0z"/>
   <path class="fil29" d="M9713 13861l-1557 0c-107,0 -195,-66 -195,-147l0 -98 1947 0 0 98c0,81 -88,147 -195,147z"/>
  </g>
 </g>
</svg>
