<?xml version="1.0" encoding="UTF-8"?>
<!DOCTYPE svg PUBLIC "-//W3C//DTD SVG 1.1//EN" "http://www.w3.org/Graphics/SVG/1.1/DTD/svg11.dtd">
<!-- Creator: CorelDRAW X7 -->
<svg xmlns="http://www.w3.org/2000/svg" xml:space="preserve" width="297mm" height="210mm" version="1.1" style="shape-rendering:geometricPrecision; text-rendering:geometricPrecision; image-rendering:optimizeQuality; fill-rule:evenodd; clip-rule:evenodd"
viewBox="0 0 29700 21000"
 xmlns:xlink="http://www.w3.org/1999/xlink">
 <defs>
  <style type="text/css">
   <![CDATA[
    .fil4 {fill:#FEFEFE;fill-rule:nonzero}
    .fil6 {fill:#EF877C;fill-rule:nonzero}
    .fil14 {fill:#EA5F5D;fill-rule:nonzero}
    .fil5 {fill:#FBFCFB;fill-rule:nonzero}
    .fil7 {fill:#E87763;fill-rule:nonzero}
    .fil3 {fill:#F4F6F5;fill-rule:nonzero}
    .fil2 {fill:#F0F1EF;fill-rule:nonzero}
    .fil0 {fill:#ECEDEC;fill-rule:nonzero}
    .fil1 {fill:#E8E8E7;fill-rule:nonzero}
    .fil25 {fill:#D06355;fill-rule:nonzero}
    .fil29 {fill:#C13231;fill-rule:nonzero}
    .fil26 {fill:#CCCDCB;fill-rule:nonzero}
    .fil27 {fill:#AB5147;fill-rule:nonzero}
    .fil28 {fill:#BBBBB9;fill-rule:nonzero}
    .fil24 {fill:#ADC8E8;fill-rule:nonzero}
    .fil31 {fill:#AAABAA;fill-rule:nonzero}
    .fil16 {fill:#ACC2E5;fill-rule:nonzero}
    .fil30 {fill:#A5A5A3;fill-rule:nonzero}
    .fil22 {fill:#829DC9;fill-rule:nonzero}
    .fil20 {fill:#829DC9;fill-rule:nonzero}
    .fil17 {fill:#6994CD;fill-rule:nonzero}
    .fil21 {fill:#4F7CBE;fill-rule:nonzero}
    .fil9 {fill:#3571B7;fill-rule:nonzero}
    .fil19 {fill:#2664AE;fill-rule:nonzero}
    .fil8 {fill:#243840;fill-rule:nonzero}
    .fil32 {fill:#202B31;fill-rule:nonzero}
    .fil12 {fill:#202F36;fill-rule:nonzero}
    .fil15 {fill:#1E1B1E;fill-rule:nonzero}
    .fil23 {fill:#1C5DA9;fill-rule:nonzero}
    .fil13 {fill:#195BA8;fill-rule:nonzero}
    .fil10 {fill:#223E69;fill-rule:nonzero}
    .fil11 {fill:#22304D;fill-rule:nonzero}
    .fil18 {fill:#616EAD;fill-rule:nonzero}
   ]]>
  </style>
 </defs>
 <g id="Layer_x0020_1">
  <metadata id="CorelCorpID_0Corel-Layer"/>
  <g id="_2122371704544">
   <polygon class="fil0" points="1195,18223 28505,18223 28505,18209 1195,18209 "/>
   <polygon class="fil0" points="23960,19102 25769,19102 25769,19088 23960,19088 "/>
   <polygon class="fil0" points="18812,19250 19286,19250 19286,19237 18812,19237 "/>
   <polygon class="fil0" points="22857,18595 23905,18595 23905,18581 22857,18581 "/>
   <polygon class="fil0" points="4060,18687 6419,18687 6419,18673 4060,18673 "/>
   <polygon class="fil0" points="6906,18687 7252,18687 7252,18673 6906,18673 "/>
   <polygon class="fil0" points="8376,18917 13492,18917 13492,18904 8376,18904 "/>
   <path class="fil0" d="M3593 338c-164,0 -298,133 -298,298l0 14825c0,165 134,299 298,299l10548 0c164,0 298,-134 298,-299l0 -14825c0,-165 -134,-298 -298,-298l-10548 0zm10548 15435l-10548 0c-171,0 -311,-140 -311,-312l0 -14825c0,-172 140,-312 311,-312l10548 0c172,0 311,140 311,312l0 14825c0,172 -139,312 -311,312z"/>
   <path class="fil0" d="M15408 338c-165,0 -298,133 -298,298l0 14825c0,165 133,299 298,299l10547 0c164,0 298,-134 298,-299l0 -14825c0,-165 -134,-298 -298,-298l-10547 0zm10547 15435l-10547 0c-172,0 -312,-140 -312,-312l0 -14825c0,-172 140,-312 312,-312l10547 0c172,0 312,140 312,312l0 14825c0,172 -140,312 -312,312z"/>
   <polygon class="fil1" points="20803,6833 21577,6833 21577,4424 20803,4424 "/>
   <polygon class="fil2" points="23675,6833 21107,6833 20719,4013 23287,4013 "/>
   <polygon class="fil3" points="23953,6833 21301,6833 20913,4013 23566,4013 "/>
   <polygon class="fil4" points="21492,6611 21166,4235 23374,4235 23701,6611 "/>
   <path class="fil3" d="M21929 5891l-123 -891c-14,-100 64,-189 165,-189l802 0c83,0 153,61 165,143l122 892c14,100 -64,189 -164,189l-803 0c-83,0 -153,-61 -164,-144z"/>
   <polygon class="fil1" points="5191,8920 16759,8920 16759,1784 5191,1784 "/>
   <polygon class="fil2" points="5329,8920 17056,8920 17056,1784 5329,1784 "/>
   <polygon class="fil1" points="5191,9473 16759,9473 16759,8920 5191,8920 "/>
   <polygon class="fil2" points="5825,9473 17551,9473 17551,8920 5825,8920 "/>
   <polygon class="fil5" points="5746,8504 16640,8504 16640,2200 5746,2200 "/>
   <polygon class="fil4" points="6545,8504 8987,2200 10140,2200 7698,8504 "/>
   <polygon class="fil4" points="7946,8504 10388,2200 10837,2200 8395,8504 "/>
   <polygon class="fil4" points="12218,8504 14660,2200 15110,2200 12668,8504 "/>
   <polygon class="fil1" points="16587,8504 16640,8504 16640,2200 16587,2200 "/>
   <polygon class="fil1" points="23079,18209 25529,18209 25529,6833 23079,6833 "/>
   <polygon class="fil2" points="25282,18209 25529,18209 25529,17509 25024,17509 "/>
   <polygon class="fil1" points="18788,18209 21237,18209 21237,6833 18788,6833 "/>
   <polygon class="fil2" points="21022,17779 25529,17779 25529,6833 21022,6833 "/>
   <polygon class="fil2" points="21268,18209 21022,18209 21022,17509 21526,17509 "/>
   <polygon class="fil1" points="21213,12197 25337,12197 25337,7033 21213,7033 "/>
   <path class="fil2" d="M23722 7435l-893 0c-388,0 -759,-159 -1026,-441l2945 0c-267,282 -638,441 -1026,441z"/>
   <polygon class="fil1" points="21213,17570 25337,17570 25337,12406 21213,12406 "/>
   <path class="fil2" d="M23722 12808l-893 0c-388,0 -759,-159 -1026,-441l2945 0c-267,282 -638,441 -1026,441z"/>
   <polygon class="fil1" points="8268,10425 12344,10425 12935,12832 8859,12832 "/>
   <polygon class="fil1" points="8859,12832 8875,12965 12952,12965 12935,12832 "/>
   <polygon class="fil2" points="8394,10425 12470,10425 13060,12832 8984,12832 "/>
   <polygon class="fil4" points="9070,12722 8534,10535 12383,10535 12920,12722 "/>
   <polygon class="fil2" points="10046,12832 10063,12965 14551,12965 14535,12832 "/>
   <polygon class="fil1" points="15087,18209 15576,18209 15576,12965 15087,12965 "/>
   <polygon class="fil2" points="15391,18209 15730,18209 15730,12965 15391,12965 "/>
   <polygon class="fil2" points="9542,13565 15835,13565 15835,12965 9542,12965 "/>
   <polygon class="fil1" points="8835,18209 9324,18209 9324,13565 8835,13565 "/>
   <polygon class="fil2" points="9138,18209 9478,18209 9478,13565 9138,13565 "/>
   <polygon class="fil1" points="5744,18209 6233,18209 6233,13565 5744,13565 "/>
   <polygon class="fil2" points="6048,18209 6387,18209 6387,13565 6048,13565 "/>
   <polygon class="fil1" points="11996,18209 12485,18209 12485,13565 11996,13565 "/>
   <polygon class="fil2" points="12300,18209 12639,18209 12639,13565 12300,13565 "/>
   <polygon class="fil1" points="5744,13565 9542,13565 9542,12965 5744,12965 "/>
   <path class="fil2" d="M17163 18209l-119 0 -340 -1673 -59 -294 -371 -1824 -1420 0 -770 3791 -119 0 785 -3860c5,-28 29,-47 57,-47l1515 0c27,0 51,19 57,47l325 1601 60 293 399 1966z"/>
   <path class="fil2" d="M19443 18209l-119 0 -770 -3791 -1420 0 -370 1825 -60 293 -340 1673 -119 0 400 -1967 59 -292 325 -1601c6,-28 30,-47 57,-47l1516 0c28,0 51,19 57,47l784 3860z"/>
   <path class="fil2" d="M15942 14360l2610 0c498,0 774,-339 915,-896l69 -319c57,-263 -40,-541 -261,-693 -108,-73 -237,-116 -377,-116l-1636 0c-339,0 -429,80 -663,591 -234,510 -657,1433 -657,1433z"/>
   <path class="fil2" d="M14811 13860l2554 0 0 500 -2781 0c-72,0 -130,-58 -130,-130l0 -12c0,-198 160,-358 357,-358z"/>
   <path class="fil3" d="M25440 20058c0,341 -4741,618 -10590,618 -5849,0 -10590,-277 -10590,-618 0,-342 4741,-619 10590,-619 5849,0 10590,277 10590,619z"/>
   <polygon class="fil6" points="12285,18310 11935,18536 11301,17799 11651,17573 "/>
   <polygon class="fil6" points="9613,19512 9211,19552 8793,18596 9195,18556 "/>
   <polygon class="fil7" points="9127,19089 9009,19089 8945,18943 9120,18938 "/>
   <path class="fil8" d="M6560 6608c-84,8 -134,-47 -190,-103 -77,-77 -165,-154 -372,-60 -451,206 -299,524 -651,511 -352,-14 -589,261 -510,467 79,205 200,398 -49,480 -248,83 -418,156 -382,362 36,206 212,290 -85,421 -297,131 -267,701 24,701 292,1 12,285 273,573 261,288 659,330 824,185 166,-144 350,-260 662,-41 311,218 838,273 814,-73 -24,-346 -326,-573 -41,-754 284,-180 655,-269 539,-620 -74,-221 -297,-408 -117,-572 293,-265 294,-866 -64,-1018 -208,-89 -8,-519 -675,-459z"/>
   <path class="fil6" d="M6171 9307c-9,162 -30,310 -55,464 -25,152 -58,303 -98,453 -39,150 -88,299 -148,445 -30,74 -64,146 -100,218 -18,36 -37,71 -58,107 -9,17 -20,35 -31,52l-16 26c-9,14 -21,33 -35,49 -28,32 -68,61 -108,80 -41,19 -82,27 -118,30 -73,5 -129,-9 -177,-24 -97,-32 -170,-74 -241,-118 -138,-89 -258,-187 -373,-289 -227,-207 -433,-424 -626,-659l153 -145c109,96 221,194 333,287 112,94 226,186 342,271 115,85 232,168 350,231 58,31 117,57 164,67 22,6 41,5 42,4 1,-1 -3,0 -11,2 -7,2 -15,10 -20,14l-2 2 -1 1 12 -22c8,-15 17,-29 24,-45 15,-30 30,-60 44,-91 28,-63 54,-126 76,-192 46,-131 84,-267 118,-404 34,-138 60,-279 83,-420 23,-139 41,-286 53,-420l424 26z"/>
   <path class="fil9" d="M6489 9359c-22,132 -132,381 -220,568 -65,134 -117,235 -117,235l-77 -34 -633 -282c48,-341 126,-712 503,-877 236,-104 582,154 544,390z"/>
   <path class="fil10" d="M6075 10128l0 0 -29 -13 -395 -176 -209 -93c48,-341 126,-712 503,-877 1,-1 1,-1 2,-1 -65,35 -104,57 -104,57 0,0 -8,6 -8,39 0,72 37,274 272,826 -17,83 -27,170 -32,238z"/>
   <path class="fil11" d="M6152 10162l-77 -34c5,-68 15,-155 32,-238 26,61 54,125 84,194 -12,24 -22,44 -29,58 -7,13 -10,20 -10,20z"/>
   <path class="fil6" d="M4165 10120l50 -368 -413 135c0,0 66,223 213,314l150 -81z"/>
   <polygon class="fil6" points="4028,9438 3740,9596 3802,9887 4215,9752 "/>
   <path class="fil8" d="M11806 18425l380 -272c13,-10 31,-8 43,4l259 269c27,28 21,77 -11,99 -134,93 -204,131 -371,250 -102,74 -319,252 -460,354 -139,99 -250,-33 -200,-88 224,-247 283,-415 318,-554 7,-25 22,-47 42,-62z"/>
   <path class="fil8" d="M9158 19427l493 0c18,0 34,13 39,30l107 391c11,40 -18,77 -60,78 -174,1 -256,1 -473,1 -133,0 -479,0 -663,0 -180,0 -218,-183 -143,-199 334,-74 527,-176 630,-274 19,-17 44,-27 70,-27z"/>
   <path class="fil9" d="M8408 10839c-311,98 -972,307 -1610,509 -1114,-2206 -955,-2323 -955,-2323 0,0 257,-146 524,-269 41,-18 82,-36 122,-53 232,-98 456,-159 731,-232 37,-10 73,-19 110,-27 313,-72 602,-99 602,-99 24,305 48,564 75,788 34,293 70,527 111,730 77,377 169,644 290,976z"/>
   <path class="fil10" d="M6798 11348c-270,-535 -466,-947 -607,-1264 -30,-69 -58,-133 -84,-194 -235,-552 -272,-754 -272,-826 0,-33 8,-39 8,-39 0,0 257,-146 524,-269 41,-18 82,-36 122,-53 0,0 0,0 0,0 -4,10 -141,373 366,734 491,-604 365,-966 365,-966 0,0 0,0 0,0 37,-10 73,-19 110,-27 230,-53 448,-82 547,-93 -193,33 -274,191 -274,368 0,29 2,57 6,86 18,130 141,287 262,413 44,224 144,498 247,645l0 0c-29,-143 -55,-301 -81,-485l0 0c26,184 52,342 81,485 77,377 169,644 290,976 -12,3 -23,7 -36,11 -323,102 -959,303 -1574,498zm1134 -3003c0,0 0,0 0,0l0 0c0,0 0,0 0,0z"/>
   <path class="fil11" d="M8118 9863c-103,-147 -203,-421 -247,-645 60,63 120,119 166,160 26,184 52,342 81,485z"/>
   <path class="fil4" d="M6855 9437c0,0 406,-88 537,88 179,-176 115,-865 29,-1111 -68,6 -201,57 -201,57l-286 443 -79 523z"/>
   <path class="fil4" d="M6855 9437c0,0 -275,62 -302,285 -381,-285 -356,-702 -269,-947 62,-38 205,-72 205,-72l287 315 79 419z"/>
   <path class="fil6" d="M6949 8006c52,201 137,400 271,465 0,0 126,362 -365,966 -515,-366 -366,-735 -366,-735 243,-145 175,-338 71,-506l143 -229c63,-101 216,-77 246,39z"/>
   <path class="fil12" d="M6657 8041c0,0 0,0 0,0l0 0 45 -74c11,-17 24,-30 39,-40 -15,10 -28,23 -38,40l-46 74zm300 -3c-3,-11 -6,-22 -8,-32 -11,-40 -36,-69 -67,-86 31,16 56,46 67,86 2,10 5,21 8,32z"/>
   <path class="fil7" d="M6810 8264c-86,0 -151,-32 -148,-114 1,-20 -2,-60 -5,-109l46 -74c10,-17 23,-30 38,-40 23,-16 49,-23 76,-23 22,0 45,5 65,16 31,17 56,46 67,86 2,10 5,21 8,32 17,62 38,123 62,180 -69,29 -145,46 -209,46z"/>
   <path class="fil6" d="M5961 7456c141,388 193,555 453,698 390,216 835,-43 812,-465 -21,-380 -249,-950 -682,-992 -427,-41 -725,372 -583,759z"/>
   <path class="fil8" d="M6621 6988c106,-32 208,-63 284,-76 -33,43 -131,110 -284,76zm344 -114c-133,-128 -272,-277 -541,-248 -296,32 -413,211 -413,211l-254 557c0,0 158,716 418,382 150,-193 156,-485 98,-704 83,-8 192,-38 301,-70 120,45 255,45 355,-47 22,-20 38,-36 50,-48l9 -11c31,-38 6,-33 -23,-22z"/>
   <path class="fil6" d="M5980 7850c43,74 116,122 184,139 103,26 151,-67 120,-162 -27,-86 -114,-203 -216,-186 -100,16 -137,125 -88,209z"/>
   <path class="fil9" d="M6798 11348c0,0 -57,3299 376,4491 416,1143 1654,3107 1654,3107l717 -19c0,0 -1140,-2486 -1327,-3470 -310,-1632 -241,-4482 -241,-4482l-1179 373z"/>
   <path class="fil13" d="M8020 13616c-225,-432 -428,-1126 -522,-1588 141,316 314,702 500,1112 6,157 13,316 22,476zm-386 -2529l1 -3 341 -109c0,0 0,1 0,2l-342 110z"/>
   <polygon class="fil8" points="8726,18983 9613,18960 9561,18688 8594,18734 "/>
   <path class="fil9" d="M7151 11242c0,0 1119,2561 1843,4019 585,1177 2403,2757 2403,2757l499 -346c0,0 -1368,-1871 -1772,-2669 -1292,-2556 -973,-3609 -1716,-4164l-1257 403z"/>
   <polygon class="fil8" points="11425,18183 12010,17767 11877,17511 11234,17998 "/>
   <path class="fil8" d="M8402 10737l118 121c9,9 -1,25 -19,31l-1688 534c-15,5 -29,1 -33,-8l-60 -139c-4,-10 6,-22 22,-27l1630 -516c12,-4 24,-2 30,4z"/>
   <path class="fil9" d="M8241 10988l43 -13c9,-3 14,-10 12,-15l-80 -181c-2,-5 -11,-7 -20,-4l-44 13c-8,3 -14,10 -11,15l79 181c3,5 12,7 21,4z"/>
   <path class="fil9" d="M6940 11400l44 -14c9,-3 14,-9 12,-15l-80 -180c-2,-6 -12,-8 -20,-5l-44 14c-9,3 -14,9 -11,14l79 181c3,5 12,7 20,5z"/>
   <path class="fil9" d="M7590 11194l44 -14c9,-3 14,-9 12,-14l-80 -181c-2,-5 -11,-7 -20,-5l-44 14c-8,3 -14,9 -11,15l79 180c3,6 12,8 20,5z"/>
   <path class="fil8" d="M6640 7372c10,32 34,53 55,46 21,-6 31,-37 21,-69 -10,-32 -34,-53 -55,-47 -21,6 -31,37 -21,70z"/>
   <path class="fil8" d="M7003 7263c10,33 35,53 56,47 21,-6 30,-37 20,-69 -9,-32 -34,-53 -55,-47 -21,6 -30,37 -21,69z"/>
   <path class="fil8" d="M7015 7198l71 -45c0,0 -22,72 -71,45z"/>
   <path class="fil14" d="M6913 7347c0,0 95,122 175,171 -30,52 -108,55 -108,55l-67 -226z"/>
   <path class="fil8" d="M6871 7749l3 -10c-1,-5 -7,-8 -12,-7 -140,42 -236,-37 -237,-38l-14 2 1 13c4,4 105,87 256,42l3 -2z"/>
   <path class="fil8" d="M6503 7283l6 -8c30,-82 101,-99 102,-99 10,-2 17,-13 15,-24 -3,-10 -13,-17 -24,-14 -4,0 -92,21 -130,123 -4,10 1,22 11,26 7,2 14,1 20,-4z"/>
   <path class="fil8" d="M7114 7057l1 -3c2,-11 -5,-21 -16,-23 -107,-21 -171,44 -173,47 -8,7 -8,20 0,27 8,8 20,8 28,0 2,-2 53,-52 138,-36 9,2 18,-3 22,-12z"/>
   <path class="fil6" d="M8177 8730c65,49 120,94 177,144 55,49 110,98 164,149 107,103 209,210 307,323 97,112 188,231 272,356 22,31 41,64 61,96 21,31 40,64 59,97 18,34 37,65 56,102l29 61 23 61c57,164 70,325 70,480 -3,155 -20,305 -49,451 -28,147 -65,289 -107,429 -46,140 -93,276 -155,412l-197 -73c34,-131 66,-269 90,-404 26,-136 47,-272 59,-408 12,-135 17,-269 9,-399 -4,-64 -12,-127 -23,-187 -13,-60 -30,-117 -50,-169l-16 -38 -19 -34c-15,-25 -35,-55 -52,-82 -17,-29 -36,-56 -56,-83 -19,-27 -37,-55 -58,-81 -80,-107 -169,-209 -259,-310 -91,-100 -188,-196 -288,-289 -49,-46 -100,-92 -151,-137 -51,-43 -105,-90 -152,-128l256 -339z"/>
   <path class="fil6" d="M8947 11688l-300 219 385 202c0,0 114,-202 77,-371l-162 -50z"/>
   <polygon class="fil6" points="8552,12260 8866,12357 9032,12109 8647,11907 "/>
   <path class="fil9" d="M7932 8345c210,-10 621,505 621,505l-427 603c0,0 -480,-381 -517,-648 -32,-227 57,-448 323,-460z"/>
   <path class="fil10" d="M8126 9453c0,0 -36,-28 -89,-75 -46,-41 -106,-97 -166,-160 -121,-126 -244,-283 -262,-413 -4,-29 -6,-57 -6,-86 0,-193 97,-364 329,-374 2,0 4,0 6,0 211,0 615,505 615,505l-50 70 -38 53 -249 353 -90 127z"/>
   <path class="fil9" d="M11782 18496c-60,5 -139,19 -153,43 -2,3 -3,7 0,15 8,13 17,21 29,22 28,4 74,-26 124,-80zm-120 100l-6 0c-19,-2 -34,-13 -44,-33 -8,-15 -4,-27 0,-34 26,-46 176,-53 193,-54l10 5 -2 11c-35,40 -99,105 -151,105z"/>
   <path class="fil9" d="M11675 18391c-9,0 -16,3 -23,9 -9,8 -8,15 -6,19 12,26 90,54 140,56 -25,-31 -72,-80 -107,-84l-4 0zm121 104c-51,0 -150,-28 -168,-68 -4,-8 -7,-25 11,-42 12,-10 26,-15 42,-13 60,6 130,103 133,107l1 10 -8 6 -11 0z"/>
   <path class="fil9" d="M8861 19424c-9,0 -16,1 -20,4 -2,1 -4,4 -4,9 1,14 7,25 18,33 29,22 97,25 185,9 -61,-27 -140,-55 -179,-55zm78 85c-38,0 -74,-6 -96,-23 -16,-12 -24,-28 -25,-48 -1,-14 6,-22 12,-26 45,-31 213,46 246,61l6 10 -8 9c-36,8 -87,17 -135,17z"/>
   <path class="fil9" d="M8949 19325l-6 1c-11,1 -16,4 -17,9 -4,27 74,98 131,129 -13,-43 -49,-139 -108,-139zm123 167l-4 -1c-56,-23 -168,-112 -161,-159 1,-10 8,-23 33,-26 98,-12 140,166 141,174l-3 10 -6 2z"/>
   <path class="fil8" d="M6652 7307l71 -46c0,0 -22,72 -71,46z"/>
   <path class="fil15" d="M16960 3312l-7938 0c-361,0 -641,295 -624,656l744 15434c17,361 327,656 687,656l7938 0c361,0 642,-295 624,-656l-744 -15434c-17,-361 -326,-656 -687,-656z"/>
   <path class="fil8" d="M17251 3312l-7938 0c-360,0 -641,295 -624,656l744 15434c18,361 327,656 687,656l7939 0c360,0 641,-295 623,-656l-744 -15434c-17,-361 -326,-656 -687,-656z"/>
   <path class="fil9" d="M10099 19621c-118,0 -223,-100 -229,-219l-744 -15434c-6,-119 90,-219 208,-219l7938 0c119,0 224,100 229,219l744 15434c6,119 -89,219 -207,219l-7939 0z"/>
   <path class="fil16" d="M18032 19511l-7938 0c-58,0 -112,-51 -114,-109l-745 -15434c-2,-58 46,-109 104,-109l7939 0c58,0 111,51 114,109l66 1359 -1118 0c-1,0 -3,0 -4,0l-5406 0 0 0 171 3553c-259,64 -464,172 -616,326 -232,233 -339,523 -323,870 13,254 83,469 213,646 129,177 278,305 447,385 95,45 226,94 394,149l25 524 -1160 136c45,195 106,361 182,498 77,138 183,266 319,385 135,119 294,212 475,279 75,28 158,52 250,72l133 2761 -653 0c-43,0 -83,17 -113,48 -29,31 -44,72 -42,115l115 2388c4,88 80,160 168,160l1575 0c43,0 83,-17 113,-48 29,-30 44,-71 42,-115l-31 -639c186,68 385,106 592,106l4859 0 71 1476c3,58 -46,109 -104,109zm-5542 -943l-1575 0c-60,0 -111,-49 -113,-109l-116 -2387c-1,-29 9,-55 28,-75 19,-20 45,-31 73,-31l656 0 14 292c3,71 11,141 23,210l-619 0c-15,0 -27,12 -27,27 0,15 12,28 27,28l630 0c18,87 43,172 73,254l-688 0c-15,0 -27,12 -27,27 0,15 12,27 27,27l710 0c37,89 80,173 130,254l-825 0c-15,0 -28,12 -28,28 0,15 13,27 28,27l861 0c61,91 130,176 207,254l-1053 0c-15,0 -28,12 -28,27 0,15 13,27 28,27l1108 0c105,98 221,184 346,254l-1439 0c-16,0 -28,13 -28,28 0,15 12,27 28,27l1480 0c12,0 22,-8 26,-19 43,22 87,42 131,60l32 664c2,28 -8,55 -27,75 -19,20 -45,31 -73,31zm-1555 -557c-15,0 -27,12 -27,27 0,15 12,28 27,28l1177 0c15,0 28,-13 28,-28 0,-15 -13,-27 -28,-27l-1177 0z"/>
   <path class="fil17" d="M12490 18622l-1575 0c-88,0 -164,-72 -168,-160l-115 -2388c-2,-43 13,-84 42,-115 30,-31 70,-48 113,-48l653 0 3 55 -656 0c-28,0 -54,11 -73,31 -19,20 -29,46 -28,75l116 2387c2,60 53,109 113,109l1575 0c28,0 54,-11 73,-31 19,-20 29,-47 27,-75l-32 -664c19,8 37,15 56,22l31 639c2,44 -13,85 -42,115 -30,31 -70,48 -113,48z"/>
   <path class="fil17" d="M11491 16523l-630 0c-15,0 -27,-13 -27,-28 0,-15 12,-27 27,-27l619 0c3,18 7,37 11,55z"/>
   <path class="fil17" d="M11586 16831l-710 0c-15,0 -27,-12 -27,-27 0,-15 12,-27 27,-27l688 0c7,18 14,36 22,54z"/>
   <path class="fil17" d="M11752 17140l-861 0c-15,0 -28,-12 -28,-27 0,-16 13,-28 28,-28l825 0c12,19 24,37 36,55z"/>
   <path class="fil17" d="M12014 17448l-1108 0c-15,0 -28,-12 -28,-27 0,-15 13,-27 28,-27l1053 0c18,18 36,37 55,54z"/>
   <path class="fil17" d="M12401 17757l-1480 0c-16,0 -28,-12 -28,-27 0,-15 12,-28 28,-28l1439 0c22,13 45,25 67,36 -4,11 -14,19 -26,19z"/>
   <path class="fil17" d="M12112 18066l-1177 0c-15,0 -27,-13 -27,-28 0,-15 12,-27 27,-27l1177 0c15,0 28,12 28,27 0,15 -13,28 -28,28z"/>
   <path class="fil18" d="M11307 13150c-92,-20 -175,-44 -250,-72 -181,-67 -340,-160 -475,-279 -136,-119 -242,-247 -319,-385 -76,-137 -137,-303 -182,-498l1160 -136 66 1370zm-91 -1894c-168,-55 -299,-104 -394,-149 -169,-80 -318,-208 -447,-385 -130,-177 -200,-392 -213,-646 -16,-347 91,-637 323,-870 152,-154 357,-262 616,-326l115 2376z"/>
   <path class="fil12" d="M18611 17926l-437 0 -17 -365 93 0c118,0 232,-12 342,-36l19 401z"/>
   <polygon class="fil19" points="18174,17926 18065,17926 18047,17561 18157,17561 "/>
   <path class="fil20" d="M18065 17926l-4859 0c-207,0 -406,-38 -592,-106l-84 -1748c-4,-89 -80,-161 -168,-161l-922 0 -133 -2761c133,30 285,52 455,67l7 149c6,118 106,214 224,214 118,0 209,-96 203,-214l-7 -149c239,-10 440,-41 604,-95 60,-20 120,-44 178,-74l137 2845c44,921 827,1668 1748,1668l3191 0 18 365zm-5507 -128c-44,-18 -88,-38 -131,-60 1,-3 1,-5 1,-8 0,-15 -12,-28 -27,-28l-41 0c-125,-70 -241,-156 -346,-254l372 0c15,0 27,-12 27,-27 0,-15 -12,-27 -27,-27l-427 0c-77,-78 -146,-163 -207,-254l619 0c15,0 28,-12 28,-27 0,-16 -13,-28 -28,-28l-655 0c-50,-81 -93,-165 -130,-254l770 0c15,0 28,-12 28,-27 0,-15 -13,-27 -28,-27l-792 0c-30,-82 -55,-167 -73,-254l851 0c15,0 27,-13 27,-28 0,-15 -12,-27 -27,-27l-862 0c-12,-69 -20,-139 -23,-210l-14 -292 919 0c60,0 110,49 113,108l83 1724z"/>
   <path class="fil21" d="M12614 17820c-19,-7 -37,-14 -56,-22l-83 -1724c-3,-59 -53,-108 -113,-108l-919 0 -3 -55 922 0c88,0 164,72 168,161l84 1748z"/>
   <path class="fil21" d="M12342 16523l-851 0c-4,-18 -8,-37 -11,-55l862 0c15,0 27,12 27,27 0,15 -12,28 -27,28z"/>
   <path class="fil21" d="M12356 16831l-770 0c-8,-18 -15,-36 -22,-54l792 0c15,0 28,12 28,27 0,15 -13,27 -28,27z"/>
   <path class="fil21" d="M12371 17140l-619 0c-12,-18 -24,-36 -36,-55l655 0c15,0 28,12 28,28 0,15 -13,27 -28,27z"/>
   <path class="fil21" d="M12386 17448l-372 0c-19,-17 -37,-36 -55,-54l427 0c15,0 27,12 27,27 0,15 -12,27 -27,27z"/>
   <path class="fil21" d="M12427 17738c-22,-11 -45,-23 -67,-36l41 0c15,0 27,13 27,28 0,3 0,5 -1,8z"/>
   <path class="fil22" d="M12152 12454l-45 -939c192,66 323,138 392,215 69,78 106,162 110,254 5,106 -29,201 -102,286 -73,85 -191,147 -355,184zm-428 -30c-140,-66 -242,-142 -305,-228 -64,-85 -118,-225 -162,-418l-16 2 -25 -524c130,42 283,87 458,135l50 1033zm1133 -1726c-210,-91 -477,-179 -802,-265l-41 -846c104,55 179,109 226,162 46,54 100,150 161,289l421 -68 35 728zm-1235 -373c-125,-43 -214,-97 -267,-160 -52,-64 -81,-139 -85,-225 -4,-82 17,-154 63,-215 46,-60 130,-111 253,-153l36 753zm1153 -1327c-213,-100 -480,-160 -798,-180l-4 -76c-6,-118 -106,-214 -224,-214 -118,0 -209,96 -203,214l4 76c-164,8 -314,29 -449,62l-171 -3553c921,0 1704,747 1749,1669l96 2002z"/>
   <path class="fil18" d="M11993 13580c-118,0 -218,-96 -224,-214l-7 -149c-170,-15 -322,-37 -455,-67l-66 -1370 16 -2c44,193 98,333 162,418 63,86 165,162 305,228l-50 -1033c-175,-48 -328,-93 -458,-135l-115 -2376c135,-33 285,-54 449,-62l-4 -76c-6,-118 85,-214 203,-214 118,0 218,96 224,214l4 76c318,20 585,80 798,180l47 972 -421 68c-61,-139 -115,-235 -161,-289 -47,-53 -122,-107 -226,-162l41 846c325,86 592,174 802,265l114 2350c-58,30 -118,54 -178,74 -164,54 -365,85 -604,95l7 149c6,118 -85,214 -203,214zm114 -2065l45 939c164,-37 282,-99 355,-184 73,-85 107,-180 102,-286 -4,-92 -41,-176 -110,-254 -69,-77 -200,-149 -392,-215zm-521 -1943c-123,42 -207,93 -253,153 -46,61 -67,133 -63,215 4,86 33,161 85,225 53,63 142,117 267,160l-36 -753z"/>
   <path class="fil23" d="M16340 5327l-5410 0 5406 0c1,0 3,0 4,0z"/>
   <path class="fil5" d="M17660 5327l-6730 0c921,0 1704,747 1749,1669l429 8897c44,921 827,1668 1748,1668l3394 0c921,0 1632,-747 1588,-1668l-429 -8897c-45,-922 -827,-1669 -1749,-1669z"/>
   <path class="fil1" d="M16444 15893c45,921 -666,1668 -1588,1668l6730 0c922,0 1633,-747 1588,-1668l-6730 0z"/>
   <path class="fil9" d="M18608 10850l-4757 0c-68,0 -126,-56 -130,-124l0 0c-3,-68 50,-124 118,-124l4757 0c68,0 127,56 130,124l0 0c3,68 -50,124 -118,124z"/>
   <path class="fil9" d="M18645 11624l-4756 0c-69,0 -127,-56 -130,-124 -4,-68 49,-124 118,-124l4756 0c69,0 127,56 130,124 4,68 -50,124 -118,124z"/>
   <path class="fil9" d="M18683 12398l-4757 0c-68,0 -127,-55 -130,-124 -3,-68 50,-124 118,-124l4757 0c68,0 126,56 130,124 3,69 -50,124 -118,124z"/>
   <path class="fil9" d="M18720 13173l-4757 0c-68,0 -126,-56 -130,-124 -3,-69 50,-124 118,-124l4757 0c68,0 127,55 130,124 3,68 -50,124 -118,124z"/>
   <path class="fil9" d="M16866 13947l-2865 0c-69,0 -127,-56 -130,-124 -4,-68 49,-124 118,-124l2865 0c68,0 127,56 130,124 3,68 -50,124 -118,124z"/>
   <path class="fil9" d="M17595 8176c40,825 -597,1494 -1422,1494 -826,0 -1527,-669 -1567,-1494 -39,-825 597,-1494 1423,-1494 825,0 1526,669 1566,1494z"/>
   <path class="fil4" d="M17334 8176c10,213 -34,413 -121,587 -189,385 -584,646 -1053,646 -469,0 -889,-261 -1115,-646 -104,-174 -167,-374 -178,-587 -32,-682 493,-1234 1174,-1234 681,0 1260,552 1293,1234z"/>
   <path class="fil24" d="M16160 9409c-469,0 -889,-261 -1115,-646 300,-207 667,-328 1068,-328 401,0 780,121 1100,328 -189,385 -584,646 -1053,646z"/>
   <path class="fil24" d="M16107 8303c-304,0 -561,-246 -576,-549 -15,-304 219,-550 523,-550 303,0 561,246 576,550 14,303 -220,549 -523,549z"/>
   <polygon class="fil25" points="20681,19648 20280,19648 20240,18719 20641,18719 "/>
   <polygon class="fil26" points="20662,19198 20662,19198 20641,18719 20642,18719 "/>
   <polygon class="fil27" points="20662,19198 20261,19198 20240,18719 20641,18719 "/>
   <polygon class="fil25" points="24097,18559 23715,18683 23236,17862 23617,17738 "/>
   <polygon class="fil28" points="23865,18161 23817,18080 23817,18079 23865,18161 "/>
   <polygon class="fil27" points="23483,18286 23435,18204 23817,18080 23865,18161 "/>
   <path class="fil25" d="M22038 6221c50,61 92,115 135,174 43,58 84,117 125,176 81,118 158,239 231,364 144,251 275,513 368,804l9 27 5 14 6 23 10 45 6 41c8,54 8,102 6,148 -4,91 -19,171 -36,247 -34,154 -84,292 -137,427 -109,269 -239,518 -391,762l-271 -130c82,-256 162,-519 224,-774 32,-127 56,-255 70,-373 7,-59 10,-117 7,-164 -2,-23 -4,-44 -8,-58l-3 -10 -3 -5 0 -2 -5 -10 -9 -22 -36 -85 -41 -85c-27,-57 -58,-114 -88,-171 -62,-113 -129,-225 -199,-336 -71,-111 -144,-220 -219,-329 -74,-108 -156,-218 -230,-317l474 -381z"/>
   <path class="fil25" d="M22127 9277l-157 348 449 0c0,0 71,-264 -91,-370l-201 22z"/>
   <polygon class="fil25" points="22023,10015 22439,9934 22419,9625 21970,9625 "/>
   <path class="fil8" d="M20051 4461c0,32 -17,58 -38,58 -21,0 -38,-26 -38,-58 0,-32 17,-59 38,-59 21,0 38,27 38,59z"/>
   <path class="fil29" d="M20037 4519c0,0 -74,187 -155,277 58,54 155,29 155,29l0 -306z"/>
   <path class="fil8" d="M20166 4282l-11 -4c-69,-50 -135,-25 -135,-25 -10,4 -21,-1 -25,-11 -4,-10 1,-21 11,-24 4,-2 86,-32 171,29 9,6 11,18 4,27 -3,5 -9,8 -15,8z"/>
   <path class="fil25" d="M21096 4834c-58,294 -115,831 90,1027 0,0 -80,298 -625,298 -600,0 -287,-298 -287,-298 327,-78 319,-321 262,-549l560 -478z"/>
   <path class="fil8" d="M21265 5964c43,-95 90,-203 -8,-236 -107,-38 -697,-75 -900,-6 -204,70 -146,261 -146,261l1054 -19z"/>
   <path class="fil9" d="M23544 18758l-8 9c-4,7 -5,14 -3,22 4,17 12,18 15,19 28,4 87,-52 124,-101 -40,8 -102,26 -128,51zm89 21c-30,28 -63,51 -88,47 -10,-1 -24,-8 -31,-32 -3,-13 -1,-25 6,-37 33,-51 166,-72 171,-73l10 4 0 10c-11,18 -38,52 -68,81z"/>
   <path class="fil9" d="M23529 18639l-3 3c-8,9 -5,14 -4,16 15,23 98,35 149,30 -27,-22 -82,-61 -121,-58 -9,0 -16,3 -21,9zm170 61l-4 2c-45,13 -164,5 -189,-33 -4,-7 -10,-22 5,-39 9,-12 22,-18 38,-19 60,-5 147,72 150,75l3 9 -3 5z"/>
   <path class="fil9" d="M20055 19591c-6,0 -13,0 -18,2 -9,2 -15,7 -19,13 -6,12 -4,18 -2,21 19,26 121,27 195,16 -37,-19 -109,-52 -156,-52zm64 78c-52,0 -101,-8 -118,-31 -6,-8 -10,-22 1,-41 6,-11 16,-19 30,-22 67,-19 207,61 213,65l5 9 -8 8c-26,5 -75,12 -123,12z"/>
   <path class="fil9" d="M20142 19495l-5 0c-18,2 -19,9 -19,11 -4,27 61,95 110,125 -5,-32 -19,-96 -53,-124 -10,-8 -21,-12 -33,-12zm98 162l-4 0c-48,-22 -144,-109 -137,-154 2,-11 10,-24 36,-27 19,-2 37,4 52,16 51,42 62,150 63,155l-4 9 -6 1z"/>
   <path class="fil8" d="M23682 18639l326 -312c12,-11 30,-13 44,-3l304 203c31,21 34,66 7,92 -116,107 -178,153 -321,290 -88,84 -352,371 -474,488 -119,113 -252,11 -213,-48 177,-262 287,-514 297,-647 2,-24 13,-46 30,-63z"/>
   <path class="fil8" d="M20283 19601l438 0c16,0 31,12 34,28l79 357c9,36 -19,72 -57,71 -158,-3 -387,-12 -585,-12 -233,0 -433,13 -706,13 -165,0 -210,-167 -141,-182 314,-69 570,-76 841,-243 30,-18 62,-32 97,-32z"/>
   <path class="fil25" d="M19710 6773c-159,235 -324,454 -501,671 -177,216 -363,427 -568,627l-79 74 -20 19 -14 13 -20 17c-27,22 -55,41 -82,55 -111,60 -210,75 -298,84 -177,13 -327,-10 -473,-39 -290,-63 -552,-161 -811,-285l100 -285c257,48 525,91 775,106 124,7 248,5 342,-14 47,-9 83,-27 91,-36l1 -3 -1 0 1 0 4 -5 16 -17 64 -72c171,-194 336,-402 497,-614 161,-210 322,-429 475,-641l501 345z"/>
   <path class="fil9" d="M21905 5952c376,86 807,1112 807,1112l-755 517c0,0 -286,-400 -499,-848 -223,-469 62,-869 447,-781z"/>
   <path class="fil30" d="M21957 7581c0,0 0,0 0,0l22 -15 -22 15z"/>
   <path class="fil13" d="M21957 7581c-3,-4 -95,-133 -213,-326 5,-100 12,-201 21,-304l227 606 -13 9 -22 15z"/>
   <path class="fil9" d="M19657 5973c0,0 -427,482 -24,3468 647,0 1831,0 2146,0 15,-329 -192,-1937 126,-3489 0,0 -368,-74 -719,-91 -274,-13 -671,-22 -912,0 -318,29 -617,112 -617,112z"/>
   <path class="fil30" d="M19471 7755c-9,-193 -12,-365 -11,-520l0 0c-1,155 2,327 11,520 0,0 0,0 0,0z"/>
   <path class="fil13" d="M19471 7755c-9,-193 -12,-365 -11,-520l435 -399c-7,9 -54,493 -424,919z"/>
   <path class="fil9" d="M20080 6298c53,380 -696,1351 -696,1351l-752 -518c0,0 209,-535 560,-886 401,-400 830,-360 888,53z"/>
   <path class="fil25" d="M16998 7753l-295 -304 -314 405c0,0 239,231 524,165l85 -266z"/>
   <polygon class="fil25" points="16299,7281 16164,7706 16389,7854 16703,7449 "/>
   <path class="fil25" d="M21131 4392c-25,398 -19,632 -219,836 -302,307 -793,125 -888,-272 -85,-357 -31,-947 358,-1106 383,-155 773,145 749,542z"/>
   <path class="fil8" d="M21477 3563c123,112 71,238 7,261 198,41 227,199 123,532 -100,319 -341,747 -642,773 -452,40 -584,-432 -587,-899 -256,15 -146,-211 -460,-159 -271,46 -170,-168 -402,-260 -269,-108 -215,-522 36,-404 0,0 -117,77 19,149 136,72 122,-94 390,-114 268,-21 300,209 613,71 395,-174 652,-181 903,50z"/>
   <path class="fil8" d="M21327 3821c0,0 51,-95 174,-69 122,26 133,80 210,74 77,-7 49,74 49,74 0,0 -21,-61 -114,-27 -93,34 -153,-50 -193,-12 -40,38 -126,-40 -126,-40z"/>
   <path class="fil25" d="M20592 4500c-17,103 -76,195 -140,253 -98,86 -182,17 -185,-101 -3,-107 45,-280 157,-322 110,-41 188,53 168,170z"/>
   <path class="fil8" d="M20394 9441c0,0 456,3067 706,4215 273,1258 2177,4599 2177,4599l698 -227c0,0 -1515,-3012 -1672,-4258 -169,-1351 -524,-4329 -524,-4329l-1385 0z"/>
   <polygon class="fil9" points="23081,18034 23241,18279 24027,18023 23934,17788 "/>
   <path class="fil30" d="M21022 13273c-42,-218 -87,-467 -133,-732 46,265 91,514 133,732l0 0z"/>
   <path class="fil31" d="M21090 13610c-22,-100 -44,-213 -68,-337l0 0c24,123 46,236 68,337 0,0 0,0 0,0z"/>
   <path class="fil32" d="M21090 13610c-22,-101 -44,-214 -68,-337 -42,-218 -87,-467 -133,-732 -113,-652 -233,-1397 -325,-1993 23,-12 49,-18 78,-18 13,0 26,1 40,4 527,103 471,2066 408,3076z"/>
   <path class="fil8" d="M19633 9441c0,0 -55,3000 -12,4224 46,1273 490,5440 490,5440l680 0c0,0 25,-4093 55,-5343 33,-1363 198,-4321 198,-4321l-1411 0z"/>
   <polygon class="fil9" points="19980,18834 20019,19117 20846,19117 20868,18865 "/>
  </g>
 </g>
</svg>
